<svg version="1.1" id="Layer_1" xmlns="http://www.w3.org/2000/svg" xmlns:xlink="http://www.w3.org/1999/xlink" x="0px" y="0px"
	 width="100%" viewBox="0 0 512 512" enable-background="new 0 0 512 512" xml:space="preserve">
<path fill="#1877F2" opacity="1.000000" stroke="none" 
	d="
M217.321487,512.670532 
	C164.312439,513.000000 111.624878,513.000000 58.468658,513.000000 
	C56.199978,511.532593 53.942192,511.773468 51.861042,511.350922 
	C41.459976,509.239014 32.937550,503.508209 25.129099,496.786957 
	C17.426760,490.157104 11.286711,482.184296 6.453654,473.132812 
	C3.637805,467.859161 3.094871,462.098236 1.240990,456.285522 
	C1.000000,323.645782 1.000000,191.291550 1.000000,58.468658 
	C2.467165,56.199993 2.226461,53.942390 2.649012,51.861301 
	C4.760870,41.460262 10.491588,32.937756 17.212835,25.129282 
	C23.842772,17.426893 31.815632,11.286806 40.867149,6.453678 
	C46.140816,3.637760 51.901814,3.094957 57.714500,1.240982 
	C190.354233,1.000000 322.708466,1.000000 455.531342,1.000000 
	C457.799988,2.467222 460.057617,2.226496 462.138733,2.649040 
	C472.539703,4.760862 481.062164,10.491541 488.870605,17.212719 
	C496.572937,23.842607 502.714935,31.814243 507.545410,40.867252 
	C510.359131,46.140625 510.906677,51.901173 512.759033,57.714493 
	C513.000000,190.354233 513.000000,322.708466 513.000000,455.531342 
	C511.533051,457.799957 511.773621,460.057404 511.351105,462.138397 
	C509.239410,472.539398 503.508789,481.061951 496.787537,488.870331 
	C490.157623,496.572662 482.185974,502.714783 473.132935,507.545288 
	C467.859467,510.359070 462.098816,510.906555 456.285492,512.759033 
	C403.312439,513.000000 350.624878,513.000000 297.468658,513.000000 
	C294.097168,510.647003 294.609863,507.305542 294.597565,504.206360 
	C294.511597,482.546143 294.558563,460.885620 294.557007,439.225189 
	C294.554657,406.567932 294.533997,373.910675 294.568268,341.253418 
	C294.581329,328.785614 294.777344,328.606110 307.023315,328.566345 
	C320.019470,328.524109 333.016083,328.616028 346.011902,328.526306 
	C352.920929,328.478607 354.510468,327.170990 355.641357,320.388580 
	C358.599792,302.646088 361.257568,284.855652 363.853577,267.057037 
	C364.697144,261.273376 363.170990,259.543121 357.069580,259.493439 
	C340.908264,259.361816 324.745819,259.461578 308.583862,259.441681 
	C306.917694,259.439636 305.251221,259.445953 303.585571,259.400146 
	C295.644623,259.181641 294.706787,258.335938 294.615936,250.330856 
	C294.457153,236.335907 294.506531,222.339005 294.578613,208.343475 
	C294.706970,183.426071 310.380798,167.370224 335.328094,166.623871 
	C343.321259,166.384735 351.322906,166.613388 359.320160,166.539246 
	C367.018494,166.467880 368.499268,165.067764 368.530670,157.562256 
	C368.589172,143.566574 368.637665,129.569946 368.501678,115.574837 
	C368.448425,110.095161 367.170410,108.098450 362.358215,107.448563 
	C339.415131,104.350090 316.460846,101.293251 293.264465,105.204941 
	C253.546768,111.902687 228.003357,137.590424 221.455963,177.282852 
	C219.601135,188.527435 219.354294,199.803574 219.418716,211.140915 
	C219.494476,224.469604 219.584229,237.800751 219.357407,251.128311 
	C219.236450,258.235596 218.240646,259.250031 211.131287,259.355377 
	C195.470871,259.587494 179.807632,259.386200 164.145782,259.456360 
	C155.770462,259.493866 154.485016,260.730255 154.462341,268.945465 
	C154.415909,285.773865 154.404694,302.602509 154.468338,319.430817 
	C154.497101,327.032532 155.965683,328.494934 163.560287,328.532593 
	C178.055862,328.604523 192.551865,328.538696 207.047668,328.564667 
	C209.379822,328.568848 211.709961,328.597015 214.038406,328.803253 
	C217.156250,329.079407 218.887619,330.661713 219.179672,333.834961 
	C219.409286,336.329742 219.435150,338.826080 219.435806,341.324554 
	C219.449768,394.975769 219.465591,448.626984 219.396378,502.278107 
	C219.391998,505.679321 220.251602,509.345612 217.321487,512.670532 
z"/>
<path fill="#FFFFFF" opacity="1.000000" stroke="none" 
	d="
M217.468658,513.000000 
	C216.997620,454.186493 216.932755,395.372803 217.110748,336.559845 
	C217.125092,331.821045 215.695511,330.853455 211.288422,330.909332 
	C192.964203,331.141876 174.634460,330.913208 156.308945,331.087311 
	C152.753616,331.121124 151.863937,330.043640 151.887665,326.590637 
	C152.036499,304.932312 152.054260,283.271667 151.874115,261.613800 
	C151.843430,257.924408 152.717117,256.859497 156.517349,256.903198 
	C175.008667,257.115906 193.505875,256.849609 211.995972,257.110626 
	C216.297638,257.171295 217.129501,255.865158 217.092163,251.829926 
	C216.913406,232.506088 216.603256,213.163376 217.242111,193.857239 
	C218.020248,170.342010 224.145874,148.427780 240.148865,130.303833 
	C255.498718,112.919617 275.424744,104.593285 298.007446,101.981667 
	C321.233215,99.295662 344.212585,102.489349 367.196472,105.304016 
	C369.937378,105.639671 371.129364,106.621231 371.103088,109.709373 
	C370.945862,128.201797 370.960144,146.696686 371.086517,165.189575 
	C371.108398,168.393784 369.850586,169.106018 366.958282,169.068359 
	C357.296539,168.942551 347.631287,168.945145 337.968903,169.045837 
	C326.682587,169.163452 316.011169,171.431046 307.640411,179.670822 
	C300.092834,187.100296 297.244293,196.659973 297.075378,206.938797 
	C296.823456,222.262848 297.102295,237.595093 296.932648,252.921402 
	C296.896332,256.202881 297.837708,257.093170 301.095032,257.070801 
	C321.753754,256.929047 342.414490,257.076477 363.073151,256.928925 
	C366.850769,256.901947 368.077484,257.368256 367.342072,261.748291 
	C363.730743,283.257812 360.429016,304.823059 357.377045,326.419373 
	C356.802063,330.488098 355.151062,331.102142 351.628662,331.071259 
	C335.135498,330.926514 318.638245,331.150452 302.147369,330.907288 
	C297.998932,330.846130 296.900482,331.945862 296.910614,336.124512 
	C297.052460,394.770294 297.006378,453.416534 297.002991,512.531372 
	C270.645782,513.000000 244.291550,513.000000 217.468658,513.000000 
z"/>
<path fill="#000000" opacity="1.000000" stroke="none" 
	d="
M57.531342,1.000000 
	C58.973629,3.107913 57.187962,2.682420 56.170834,3.035561 
	C46.869629,6.264875 37.870064,10.108310 30.128897,16.367243 
	C22.187777,22.787844 15.724730,30.228336 10.493145,39.250027 
	C6.838463,45.552402 5.814349,52.823578 1.280802,58.337341 
	C1.000000,40.069355 1.082432,22.137938 0.914954,4.208858 
	C0.888525,1.379459 1.563347,0.900636 4.267539,0.923521 
	C21.864878,1.072442 39.464085,1.000000 57.531342,1.000000 
z"/>
<path fill="#000000" opacity="1.000000" stroke="none" 
	d="
M513.000000,57.531342 
	C510.892120,58.973671 511.317566,57.188049 510.964508,56.170887 
	C507.735748,46.869488 503.891632,37.870392 497.633026,30.129103 
	C491.212677,22.187750 483.772095,15.724832 474.750427,10.493358 
	C468.447937,6.838683 461.176666,5.814297 455.662659,1.280811 
	C473.930634,1.000000 491.862061,1.082430 509.791138,0.914956 
	C512.620544,0.888526 513.099304,1.563321 513.076416,4.267532 
	C512.927490,21.864870 513.000000,39.464085 513.000000,57.531342 
z"/>
<path fill="#000000" opacity="1.000000" stroke="none" 
	d="
M1.000000,456.468658 
	C3.108008,455.026306 2.682336,456.812164 3.035431,457.829193 
	C6.264632,467.130402 10.107907,476.130035 16.367079,483.870972 
	C22.787878,491.811859 30.227890,498.275604 39.249893,503.506958 
	C45.552349,507.161407 52.823410,508.185974 58.337341,512.719238 
	C40.069355,513.000000 22.137938,512.917603 4.208858,513.085083 
	C1.379436,513.111450 0.900639,512.436584 0.923523,509.732452 
	C1.072439,492.135101 1.000000,474.535919 1.000000,456.468658 
z"/>
<path fill="#000000" opacity="1.000000" stroke="none" 
	d="
M456.468658,513.000000 
	C455.026428,510.892090 456.812134,511.317688 457.829193,510.964600 
	C467.130493,507.735443 476.130127,503.891968 483.871124,497.632935 
	C491.812073,491.212280 498.275543,483.772034 503.506897,474.750122 
	C507.161377,468.447662 508.185913,461.176575 512.719238,455.662659 
	C513.000000,473.930634 512.917542,491.862061 513.085022,509.791138 
	C513.111450,512.620544 512.436646,513.099304 509.732452,513.076477 
	C492.135101,512.927551 474.535919,513.000000 456.468658,513.000000 
z"/>
</svg>