<svg version="1.1" id="Layer_1" xmlns="http://www.w3.org/2000/svg" xmlns:xlink="http://www.w3.org/1999/xlink" x="0px" y="0px"
	 width="100%" viewBox="0 0 512 512" enable-background="new 0 0 512 512" xml:space="preserve">
<path fill="#FFFFFF" opacity="1.000000" stroke="none" 
	d="
M513.000000,378.000000 
	C513.000000,422.926971 513.000000,467.853973 513.000000,513.000000 
	C468.312683,513.000000 423.625000,513.000000 378.662903,512.640198 
	C380.967590,511.856140 383.538879,511.375000 386.127167,511.016937 
	C400.654541,509.007324 414.405548,504.628265 427.597046,497.578186 
	C434.296906,493.712494 440.700623,489.881744 447.454041,486.017944 
	C451.236542,483.340851 454.669373,480.696747 458.404602,477.912598 
	C462.511505,474.194458 466.316071,470.616364 470.420837,466.899841 
	C472.183289,464.856079 473.645538,462.950714 475.410919,460.905029 
	C481.182373,453.188873 486.650635,445.613037 492.419678,437.862915 
	C493.495972,436.268097 494.388794,434.898132 495.027039,433.418365 
	C498.092499,426.311249 501.089203,419.174438 504.426575,411.848663 
	C506.864166,402.451538 508.985474,393.253876 511.430298,383.847687 
	C512.169250,381.759430 512.584595,379.879700 513.000000,378.000000 
z"/>
<path fill="#FFFFFF" opacity="1.000000" stroke="none" 
	d="
M1.000000,136.000000 
	C1.000000,91.072998 1.000000,46.146004 1.000000,1.000000 
	C45.687321,1.000000 90.375000,1.000000 135.351715,1.371049 
	C132.750931,2.160892 129.852020,2.525308 126.972885,3.007827 
	C114.060593,5.171833 101.552170,8.609578 89.585892,14.941591 
	C81.772446,19.318039 74.329964,23.637854 66.536255,27.983646 
	C62.751785,30.658928 59.318539,33.308231 55.580460,36.091095 
	C51.833519,39.448517 48.391411,42.672379 44.638763,46.037010 
	C41.868042,49.083633 39.407856,51.989479 36.634750,55.038818 
	C31.046274,62.916435 25.770714,70.650551 20.278275,78.658424 
	C16.429888,87.287704 12.798379,95.643234 8.995304,104.341003 
	C7.605025,109.123917 6.386311,113.564583 4.983862,118.360733 
	C4.541261,119.282433 4.161633,119.824425 4.042455,120.418671 
	C3.001853,125.607140 2.007843,130.804962 1.000000,136.000000 
z"/>
<path fill="#FFFFFF" opacity="1.000000" stroke="none" 
	d="
M378.000000,1.000003 
	C422.926971,1.000000 467.853973,1.000000 513.000000,1.000000 
	C513.000000,45.687321 513.000000,90.375000 512.630249,135.353516 
	C511.784790,131.763382 511.309082,127.882439 510.769653,123.621307 
	C508.415009,115.494072 506.123993,107.747032 503.787689,99.642570 
	C499.866455,91.509193 495.990540,83.733238 491.965576,75.635727 
	C487.584869,69.197220 483.353149,63.080273 478.980347,56.655350 
	C475.577148,52.864445 472.315002,49.381523 468.917419,45.591545 
	C465.226166,42.175472 461.670380,39.066456 457.967896,35.642551 
	C454.251648,32.870983 450.682037,30.414305 446.963684,27.639870 
	C439.224304,23.176416 431.633728,19.030720 423.869324,14.571892 
	C415.782043,11.484355 407.963440,8.385962 399.926788,6.032059 
	C392.742859,3.927920 385.318359,2.645186 378.000000,1.000003 
z"/>
<path fill="#FFFFFF" opacity="1.000000" stroke="none" 
	d="
M136.000000,513.000000 
	C91.073013,513.000000 46.146030,513.000000 1.000000,513.000000 
	C1.000000,468.312683 1.000000,423.625000 1.366886,378.651001 
	C2.451989,382.590424 3.170206,386.816223 3.932688,391.453064 
	C6.040044,398.907349 8.103133,405.950562 10.105293,413.366028 
	C13.993916,421.841553 17.943468,429.944794 22.041649,438.367859 
	C26.775484,445.158600 31.360689,451.629486 36.083427,458.403564 
	C38.773735,461.483856 41.326508,464.261017 44.025352,467.344635 
	C48.079666,471.117767 51.987900,474.584473 56.046097,478.362030 
	C59.763092,481.132721 63.330135,483.592529 67.049461,486.365784 
	C73.819107,490.397552 80.436462,494.115875 87.367340,498.008728 
	C96.285164,501.462067 104.760826,505.152802 113.533539,507.892273 
	C120.841423,510.174286 128.497910,511.339905 136.000000,513.000000 
z"/>
<path fill="#DF963E" opacity="1.000000" stroke="none" 
	d="
M136.468658,513.000000 
	C128.497910,511.339905 120.841423,510.174286 113.533539,507.892273 
	C104.760826,505.152802 96.285164,501.462067 87.681000,497.746338 
	C88.832710,497.206299 89.984283,497.013000 91.135880,497.012848 
	C201.212753,496.999237 311.289612,496.997101 421.366486,497.025970 
	C423.344696,497.026489 425.322784,497.408905 427.300934,497.613098 
	C414.405548,504.628265 400.654541,509.007324 386.127167,511.016937 
	C383.538879,511.375000 380.967590,511.856140 378.194214,512.640198 
	C297.645782,513.000000 217.291550,513.000000 136.468658,513.000000 
z"/>
<path fill="#7224C2" opacity="1.000000" stroke="none" 
	d="
M377.531342,1.000003 
	C385.318359,2.645186 392.742859,3.927920 399.926788,6.032059 
	C407.963440,8.385962 415.782043,11.484355 423.776703,14.976690 
	C421.877747,16.129723 419.897827,16.944422 417.917450,16.945555 
	C310.695160,17.006933 203.472839,17.000008 96.250526,16.998945 
	C94.918663,16.998932 93.513290,17.241930 92.279556,16.890047 
	C91.387283,16.635557 90.722885,15.582105 89.956863,14.884960 
	C101.552170,8.609578 114.060593,5.171833 126.972885,3.007827 
	C129.852020,2.525308 132.750931,2.160892 135.820374,1.371049 
	C216.354233,1.000000 296.708466,1.000000 377.531342,1.000003 
z"/>
<path fill="#C3256B" opacity="1.000000" stroke="none" 
	d="
M1.000000,259.000000 
	C1.000000,248.979111 1.000000,238.958206 1.468657,228.468475 
	C18.902765,227.998489 35.868214,227.997375 52.905624,228.460388 
	C52.929623,238.949127 52.881657,248.973724 52.375465,258.999146 
	C34.944820,258.999969 17.972410,258.999969 1.000000,259.000000 
z"/>
<path fill="#C11B75" opacity="1.000000" stroke="none" 
	d="
M52.833664,227.996262 
	C35.868214,227.997375 18.902765,227.998489 1.468657,227.999817 
	C1.000000,218.312439 1.000000,208.624878 1.468657,198.468445 
	C18.903193,197.999847 35.869072,198.000137 52.905178,198.464478 
	C52.928162,208.617767 52.880913,218.307022 52.833664,227.996262 
z"/>
<path fill="#C11B75" opacity="1.000000" stroke="none" 
	d="
M513.000000,194.000000 
	C513.000000,203.354233 513.000000,212.708450 512.531372,222.531738 
	C495.096558,223.000229 478.130402,222.999680 461.095215,222.534897 
	C461.072998,212.714539 461.119843,203.358398 461.624939,194.001740 
	C479.055420,194.000793 496.027710,194.000397 513.000000,194.000000 
z"/>
<path fill="#A41D92" opacity="1.000000" stroke="none" 
	d="
M1.000000,136.454102 
	C2.007843,130.804962 3.001853,125.607140 4.042455,120.418671 
	C4.161633,119.824425 4.541261,119.282433 5.441364,118.359604 
	C23.999149,118.003510 41.915695,118.004005 59.781212,118.366867 
	C58.819611,121.142006 57.631634,123.490211 57.052116,125.980034 
	C55.506424,132.620941 54.222385,139.322754 52.376068,146.000122 
	C34.945194,145.999939 17.972597,145.999969 1.000000,146.000000 
	C1.000000,142.969406 1.000000,139.938812 1.000000,136.454102 
z"/>
<path fill="#C3256B" opacity="1.000000" stroke="none" 
	d="
M461.164276,222.999130 
	C478.130402,222.999680 495.096558,223.000229 512.531372,223.000397 
	C513.000000,231.354233 513.000000,239.708466 512.531372,248.531586 
	C495.096832,249.000107 478.130951,248.999756 461.095459,248.535248 
	C461.071960,239.713791 461.118103,231.356461 461.164276,222.999130 
z"/>
<path fill="#C43063" opacity="1.000000" stroke="none" 
	d="
M1.000000,259.468628 
	C17.972410,258.999969 34.944820,258.999969 52.447212,259.463013 
	C52.929363,267.950500 52.881538,275.974854 52.375481,283.999695 
	C34.944828,284.000122 17.972414,284.000061 1.000000,284.000000 
	C1.000000,275.979095 1.000000,267.958191 1.000000,259.468628 
z"/>
<path fill="#C5395C" opacity="1.000000" stroke="none" 
	d="
M513.000000,290.000000 
	C513.000000,297.354248 513.000000,304.708496 512.531372,312.531372 
	C495.097229,312.999542 478.131775,312.999084 461.096985,312.534546 
	C461.074158,304.713013 461.120636,297.355560 461.625275,289.998657 
	C479.055634,289.999481 496.027832,289.999725 513.000000,290.000000 
z"/>
<path fill="#C64156" opacity="1.000000" stroke="none" 
	d="
M461.166321,312.998627 
	C478.131775,312.999084 495.097229,312.999542 512.531372,313.000000 
	C513.000000,319.687653 513.000000,326.375275 512.531372,333.531464 
	C495.097260,333.999786 478.131836,333.999542 461.096863,333.535309 
	C461.073669,326.380432 461.119995,319.689514 461.166321,312.998627 
z"/>
<path fill="#C42B67" opacity="1.000000" stroke="none" 
	d="
M461.165100,248.999390 
	C478.130951,248.999756 495.096832,249.000107 512.531372,249.000229 
	C513.000000,255.687637 513.000000,262.375275 512.531372,269.531464 
	C495.097321,269.999542 478.131989,269.999084 461.096863,269.534760 
	C461.073120,262.380371 461.119110,255.689880 461.165100,248.999390 
z"/>
<path fill="#C43063" opacity="1.000000" stroke="none" 
	d="
M461.166626,269.998657 
	C478.131989,269.999084 495.097321,269.999542 512.531372,270.000000 
	C513.000000,276.354401 513.000000,282.708801 513.000000,289.531616 
	C496.027832,289.999725 479.055634,289.999481 461.555969,289.534851 
	C461.074554,282.713226 461.120575,276.355957 461.166626,269.998657 
z"/>
<path fill="#C5375E" opacity="1.000000" stroke="none" 
	d="
M1.000000,284.468384 
	C17.972414,284.000061 34.944828,284.000122 52.446365,284.463440 
	C52.928177,291.284058 52.880863,297.641479 52.375324,303.999329 
	C34.944736,303.999847 17.972368,303.999908 1.000000,304.000000 
	C1.000000,297.645599 1.000000,291.291199 1.000000,284.468384 
z"/>
<path fill="#A41D92" opacity="1.000000" stroke="none" 
	d="
M510.833344,124.001495 
	C511.309082,127.882439 511.784790,131.763382 512.630249,135.822174 
	C513.000000,138.041672 513.000000,140.083328 512.531372,142.562286 
	C494.763885,142.999634 477.465088,142.999710 460.096069,142.569305 
	C458.976532,136.104248 457.927216,130.069687 457.354065,124.024307 
	C475.497955,124.009491 493.165649,124.005493 510.833344,124.001495 
z"/>
<path fill="#CA554B" opacity="1.000000" stroke="none" 
	d="
M3.888423,391.041992 
	C3.170206,386.816223 2.451989,382.590424 1.366886,378.182312 
	C1.000000,376.285645 1.000000,374.571289 1.468657,372.428467 
	C19.235346,371.998932 36.533379,371.997833 53.902267,372.419983 
	C55.022766,378.551239 56.072411,384.259277 56.698925,390.023407 
	C54.009609,390.385895 51.744961,390.944244 49.476990,390.958099 
	C34.281197,391.050812 19.084696,391.027618 3.888423,391.041992 
z"/>
<path fill="#BA1A7D" opacity="1.000000" stroke="none" 
	d="
M52.834949,198.000412 
	C35.869072,198.000137 18.903193,197.999847 1.468657,197.999786 
	C1.000000,191.978851 1.000000,185.957703 1.468657,179.468140 
	C18.902611,179.000076 35.867905,179.000412 52.903275,179.464417 
	C52.927212,185.952194 52.881081,191.976303 52.834949,198.000412 
z"/>
<path fill="#BA1A7D" opacity="1.000000" stroke="none" 
	d="
M513.000000,193.531723 
	C496.027710,194.000397 479.055420,194.000793 461.553650,193.537994 
	C461.072144,187.050903 461.120117,181.026993 461.626221,175.002426 
	C479.056244,175.001175 496.028107,175.000595 513.000000,175.000000 
	C513.000000,181.021149 513.000000,187.042297 513.000000,193.531723 
z"/>
<path fill="#C64751" opacity="1.000000" stroke="none" 
	d="
M1.000000,356.000000 
	C1.000000,350.311951 1.000000,344.623932 1.468657,338.467957 
	C18.902594,337.999329 35.867874,337.998688 52.903534,338.461548 
	C52.927315,344.615845 52.880714,350.306610 52.375854,355.998169 
	C34.945065,355.999329 17.972532,355.999664 1.000000,356.000000 
z"/>
<path fill="#B21B84" opacity="1.000000" stroke="none" 
	d="
M52.833206,179.000732 
	C35.867905,179.000412 18.902611,179.000076 1.468657,178.999878 
	C1.000000,173.645065 1.000000,168.290146 1.468657,162.467606 
	C18.902647,162.000336 35.867977,162.000671 52.903484,162.463989 
	C52.926842,168.284866 52.880024,173.642807 52.833206,179.000732 
z"/>
<path fill="#C64751" opacity="1.000000" stroke="none" 
	d="
M461.166382,333.999298 
	C478.131836,333.999542 495.097260,333.999786 512.531372,334.000000 
	C513.000000,339.354919 513.000000,344.709869 512.531372,350.532410 
	C495.097443,350.999786 478.132202,350.999573 461.097290,350.536316 
	C461.073914,344.715271 461.120148,339.357269 461.166382,333.999298 
z"/>
<path fill="#C64156" opacity="1.000000" stroke="none" 
	d="
M52.833153,337.998047 
	C35.867874,337.998688 18.902594,337.999329 1.468657,338.000000 
	C1.000000,332.645081 1.000000,327.290131 1.468657,321.467590 
	C18.902437,320.999664 35.867558,320.999329 52.903149,321.462097 
	C52.926796,327.282776 52.879974,332.640411 52.833153,337.998047 
z"/>
<path fill="#C53C59" opacity="1.000000" stroke="none" 
	d="
M52.832680,320.999023 
	C35.867558,320.999329 18.902437,320.999664 1.468657,321.000000 
	C1.000000,315.645081 1.000000,310.290131 1.000000,304.467590 
	C17.972368,303.999908 34.944736,303.999847 52.445946,304.462341 
	C52.927418,310.282990 52.880047,315.640991 52.832680,320.999023 
z"/>
<path fill="#CA554B" opacity="1.000000" stroke="none" 
	d="
M513.000000,377.541931 
	C512.584595,379.879700 512.169250,381.759430 511.039581,383.677490 
	C508.375305,383.478058 506.426117,383.041290 504.475250,383.033936 
	C489.037750,382.975739 473.599915,382.999298 458.241150,382.609802 
	C459.268616,377.146515 460.217102,372.071136 461.623901,366.997131 
	C479.054779,366.998993 496.027405,366.999481 513.000000,367.000000 
	C513.000000,370.361298 513.000000,373.722565 513.000000,377.541931 
z"/>
<path fill="#C84E4D" opacity="1.000000" stroke="none" 
	d="
M1.000000,356.466858 
	C17.972532,355.999664 34.945065,355.999329 52.446289,356.458374 
	C53.260456,361.944092 53.545933,366.970428 53.831409,371.996765 
	C36.533379,371.997833 19.235346,371.998932 1.468657,372.000000 
	C1.000000,366.977905 1.000000,361.955811 1.000000,356.466858 
z"/>
<path fill="#A91C8D" opacity="1.000000" stroke="none" 
	d="
M460.166290,142.999786 
	C477.465088,142.999710 494.763885,142.999634 512.531372,142.999786 
	C513.000000,148.022095 513.000000,153.044189 512.531372,158.532959 
	C495.097504,158.999924 478.132355,159.000229 461.096069,158.539749 
	C460.738739,153.052582 460.452515,148.026184 460.166290,142.999786 
z"/>
<path fill="#C74B4E" opacity="1.000000" stroke="none" 
	d="
M513.000000,366.533142 
	C496.027405,366.999481 479.054779,366.998993 461.556305,366.534790 
	C461.075928,361.047180 461.121429,356.023285 461.166931,350.999359 
	C478.132202,350.999573 495.097443,350.999786 512.531372,351.000000 
	C513.000000,356.022095 513.000000,361.044189 513.000000,366.533142 
z"/>
<path fill="#B21B84" opacity="1.000000" stroke="none" 
	d="
M461.167175,159.000519 
	C478.132355,159.000229 495.097504,158.999924 512.531372,158.999817 
	C513.000000,164.022095 513.000000,169.044189 513.000000,174.533142 
	C496.028107,175.000595 479.056244,175.001175 461.554810,174.540024 
	C461.072571,169.052368 461.119873,164.026443 461.167175,159.000519 
z"/>
<path fill="#AD1C89" opacity="1.000000" stroke="none" 
	d="
M52.833309,162.001022 
	C35.867977,162.000671 18.902647,162.000336 1.468657,162.000000 
	C1.000000,156.977905 1.000000,151.955811 1.000000,146.466858 
	C17.972597,145.999969 34.945194,145.999939 52.445770,146.462479 
	C52.926937,151.950378 52.880123,156.975693 52.833309,162.001022 
z"/>
<path fill="#DD903F" opacity="1.000000" stroke="none" 
	d="
M427.597046,497.578186 
	C425.322784,497.408905 423.344696,497.026489 421.366486,497.025970 
	C311.289612,496.997101 201.212753,496.999237 91.135880,497.012848 
	C89.984283,497.013000 88.832710,497.206299 87.367470,497.571838 
	C80.436462,494.115875 73.819107,490.397552 67.440033,486.195374 
	C69.468552,485.474335 71.258728,485.029999 73.049026,485.029541 
	C195.634262,484.996948 318.219513,484.994751 440.804718,485.043732 
	C442.904755,485.044586 445.004486,485.700623 447.104370,486.050964 
	C440.700623,489.881744 434.296906,493.712494 427.597046,497.578186 
z"/>
<path fill="#DA8741" opacity="1.000000" stroke="none" 
	d="
M55.896133,478.051178 
	C51.987900,474.584473 48.079666,471.117767 44.502438,467.333008 
	C186.595856,467.022705 328.358246,467.030487 470.120667,467.038269 
	C466.316071,470.616364 462.511505,474.194458 458.014099,477.742004 
	C455.530945,477.474274 453.740753,477.029938 451.950409,477.029510 
	C322.032196,476.997101 192.114014,476.995026 62.195827,477.043701 
	C60.095802,477.044464 57.996025,477.700775 55.896133,478.051178 
z"/>
<path fill="#DB8B40" opacity="1.000000" stroke="none" 
	d="
M56.046089,478.362030 
	C57.996025,477.700775 60.095802,477.044464 62.195827,477.043701 
	C192.114014,476.995026 322.032196,476.997101 451.950409,477.029510 
	C453.740753,477.029938 455.530945,477.474274 457.711731,477.882019 
	C454.669373,480.696747 451.236542,483.340851 447.454041,486.017944 
	C445.004486,485.700623 442.904755,485.044586 440.804718,485.043732 
	C318.219513,484.994751 195.634262,484.996948 73.049026,485.029541 
	C71.258728,485.029999 69.468552,485.474335 67.287743,485.881897 
	C63.330135,483.592529 59.763092,481.132721 56.046089,478.362030 
z"/>
<path fill="#D88242" opacity="1.000000" stroke="none" 
	d="
M470.420837,466.899841 
	C328.358246,467.030487 186.595856,467.022705 44.356361,467.026550 
	C41.326508,464.261017 38.773735,461.483856 36.369675,458.089600 
	C38.319130,457.315002 40.119705,457.022736 41.920650,457.020416 
	C65.866959,456.989899 89.813568,457.044586 113.759140,456.908630 
	C115.522240,456.898651 117.277931,455.586487 119.421463,454.941833 
	C130.531250,457.002319 141.202744,460.273102 151.993439,460.730316 
	C173.445084,461.639282 194.968918,461.342499 216.451233,460.932190 
	C271.619324,459.878540 326.846588,463.609650 382.245483,459.197510 
	C384.325531,459.676971 386.126251,459.975983 387.927338,459.977997 
	C414.722137,460.008026 441.516998,459.973602 468.311646,460.044159 
	C470.577881,460.050110 472.842438,460.696472 475.107758,461.045349 
	C473.645538,462.950714 472.183289,464.856079 470.420837,466.899841 
z"/>
<path fill="#D67A44" opacity="1.000000" stroke="none" 
	d="
M475.410919,460.905029 
	C472.842438,460.696472 470.577881,460.050110 468.311646,460.044159 
	C441.516998,459.973602 414.722137,460.008026 387.927338,459.977997 
	C386.126251,459.975983 384.325531,459.676971 382.459534,458.878418 
	C398.874207,455.203979 412.816284,446.980560 426.317322,436.975983 
	C432.375610,437.325317 437.995453,437.904572 443.619965,437.954132 
	C459.785278,438.096588 475.952484,438.024811 492.118896,438.037201 
	C486.650635,445.613037 481.182373,453.188873 475.410919,460.905029 
z"/>
<path fill="#D26E46" opacity="1.000000" stroke="none" 
	d="
M492.419678,437.862915 
	C475.952484,438.024811 459.785278,438.096588 443.619965,437.954132 
	C437.995453,437.904572 432.375610,437.325317 426.463135,436.671570 
	C434.148163,428.712555 441.835022,420.830994 447.623596,410.999298 
	C464.666656,411.000549 481.251648,410.964020 497.835999,411.047516 
	C499.929047,411.058044 502.018951,411.699188 504.110291,412.048157 
	C501.089203,419.174438 498.092499,426.311249 495.027039,433.418365 
	C494.388794,434.898132 493.495972,436.268097 492.419678,437.862915 
z"/>
<path fill="#CE6249" opacity="1.000000" stroke="none" 
	d="
M504.426575,411.848663 
	C502.018951,411.699188 499.929047,411.058044 497.835999,411.047516 
	C481.251648,410.964020 464.666656,411.000549 447.670197,410.656433 
	C450.893066,401.207672 454.527618,392.102692 458.162170,382.997711 
	C473.599915,382.999298 489.037750,382.975739 504.475250,383.033936 
	C506.426117,383.041290 508.375305,383.478058 510.716003,383.886047 
	C508.985474,393.253876 506.864166,402.451538 504.426575,411.848663 
z"/>
<path fill="#7723BD" opacity="1.000000" stroke="none" 
	d="
M89.585892,14.941591 
	C90.722885,15.582105 91.387283,16.635557 92.279556,16.890047 
	C93.513290,17.241930 94.918663,16.998932 96.250526,16.998945 
	C203.472839,17.000008 310.695160,17.006933 417.917450,16.945555 
	C419.897827,16.944422 421.877747,16.129723 423.950500,15.289822 
	C431.633728,19.030720 439.224304,23.176416 446.541016,27.699856 
	C443.816010,28.384989 441.365021,28.960428 438.913818,28.961317 
	C317.686340,29.005192 196.458878,29.006718 75.231422,28.956232 
	C72.449966,28.955074 69.668793,28.305035 66.887482,27.957668 
	C74.329964,23.637854 81.772446,19.318039 89.585892,14.941591 
z"/>
<path fill="#7E22B6" opacity="1.000000" stroke="none" 
	d="
M458.114594,35.957451 
	C461.670380,39.066456 465.226166,42.175472 468.631592,45.905514 
	C467.009888,46.684254 465.538513,46.979855 464.067108,46.980080 
	C326.072784,47.001144 188.078476,47.003666 50.084167,46.953918 
	C48.372421,46.953300 46.660919,46.264057 44.949303,45.896240 
	C48.391411,42.672379 51.833519,39.448517 56.017010,36.104889 
	C62.374985,36.323418 67.991432,36.954201 73.608192,36.956913 
	C191.664703,37.013916 309.721252,37.025372 427.777740,36.954769 
	C437.890228,36.948723 448.002319,36.304970 458.114594,35.957451 
z"/>
<path fill="#8222B2" opacity="1.000000" stroke="none" 
	d="
M44.638763,46.037018 
	C46.660919,46.264057 48.372421,46.953300 50.084167,46.953918 
	C188.078476,47.003666 326.072784,47.001144 464.067108,46.980080 
	C465.538513,46.979855 467.009888,46.684254 468.767090,46.212570 
	C472.315002,49.381523 475.577148,52.864445 478.503540,56.666435 
	C453.222168,56.990387 428.276154,56.930557 403.331390,57.079563 
	C400.101990,57.098850 396.879059,58.197281 393.348145,58.655258 
	C381.101379,54.736046 368.936127,52.891010 356.342834,52.925827 
	C296.191101,53.092136 236.038498,53.080132 175.886581,52.952633 
	C157.410538,52.913475 138.951492,52.476322 120.946335,57.717445 
	C119.047310,56.874882 117.239006,56.063217 115.427902,56.056911 
	C91.142303,55.972408 66.856239,56.024635 42.570553,55.952579 
	C40.695229,55.947014 38.821915,55.263649 36.947666,54.895321 
	C39.407856,51.989479 41.868042,49.083633 44.638763,46.037018 
z"/>
<path fill="#7C22B9" opacity="1.000000" stroke="none" 
	d="
M457.967896,35.642563 
	C448.002319,36.304970 437.890228,36.948723 427.777740,36.954769 
	C309.721252,37.025372 191.664703,37.013916 73.608192,36.956913 
	C67.991432,36.954201 62.374985,36.323418 56.321838,35.971329 
	C59.318539,33.308231 62.751785,30.658928 66.536255,27.983646 
	C69.668793,28.305035 72.449966,28.955074 75.231422,28.956232 
	C196.458878,29.006718 317.686340,29.005192 438.913818,28.961317 
	C441.365021,28.960428 443.816010,28.384989 446.689789,28.017612 
	C450.682037,30.414305 454.251648,32.870983 457.967896,35.642563 
z"/>
<path fill="#8821AD" opacity="1.000000" stroke="none" 
	d="
M36.634750,55.038818 
	C38.821915,55.263649 40.695229,55.947014 42.570553,55.952579 
	C66.856239,56.024635 91.142303,55.972408 115.427902,56.056911 
	C117.239006,56.063217 119.047310,56.874882 120.766663,58.033379 
	C106.730659,63.368652 94.686386,71.097923 83.759399,80.799164 
	C81.685982,80.320320 79.893295,80.023277 78.100006,80.019608 
	C60.867588,79.984291 43.634697,80.050285 26.403078,79.927452 
	C24.430202,79.913383 22.464291,78.922592 20.495152,78.384666 
	C25.770714,70.650551 31.046274,62.916435 36.634750,55.038818 
z"/>
<path fill="#9120A4" opacity="1.000000" stroke="none" 
	d="
M20.278275,78.658424 
	C22.464291,78.922592 24.430202,79.913383 26.403078,79.927452 
	C43.634697,80.050285 60.867588,79.984291 78.100006,80.019608 
	C79.893295,80.023277 81.685982,80.320320 83.627289,81.102196 
	C79.834358,86.233330 75.771767,90.644821 71.994659,95.288528 
	C69.491928,98.365486 67.398262,101.775162 64.728104,104.872208 
	C62.383480,104.471832 60.432896,104.036270 58.480877,104.029762 
	C42.043022,103.974945 25.604906,103.998665 9.166869,103.998756 
	C12.798379,95.643234 16.429888,87.287704 20.278275,78.658424 
z"/>
<path fill="#9C1E9A" opacity="1.000000" stroke="none" 
	d="
M8.995304,104.341003 
	C25.604906,103.998665 42.043022,103.974945 58.480877,104.029762 
	C60.432896,104.036270 62.383480,104.471832 64.668839,105.239044 
	C63.279388,109.847885 61.555817,113.926193 59.832245,118.004501 
	C41.915695,118.004005 23.999149,118.003510 5.625098,118.004135 
	C6.386311,113.564583 7.605025,109.123917 8.995304,104.341003 
z"/>
<path fill="#9120A4" opacity="1.000000" stroke="none" 
	d="
M492.114594,75.957283 
	C495.990540,83.733238 499.866455,91.509193 503.330139,99.642570 
	C495.277832,99.999992 487.637268,99.943481 479.997833,100.013329 
	C468.716400,100.116470 457.435730,100.309479 445.898804,100.270020 
	C439.055237,92.396576 432.467621,84.717323 426.310425,77.018005 
	C429.838348,76.665390 432.934326,76.061920 436.033539,76.044724 
	C454.726807,75.941040 473.420837,75.971619 492.114594,75.957283 
z"/>
<path fill="#8821AD" opacity="1.000000" stroke="none" 
	d="
M491.965576,75.635727 
	C473.420837,75.971619 454.726807,75.941040 436.033539,76.044724 
	C432.934326,76.061920 429.838348,76.665390 426.001495,76.879944 
	C415.655121,69.138184 405.400269,62.654289 393.653137,58.795834 
	C396.879059,58.197281 400.101990,57.098850 403.331390,57.079563 
	C428.276154,56.930557 453.222168,56.990387 478.644623,56.974411 
	C483.353149,63.080273 487.584869,69.197220 491.965576,75.635727 
z"/>
<path fill="#9C1E9A" opacity="1.000000" stroke="none" 
	d="
M446.154724,100.464218 
	C457.435730,100.309479 468.716400,100.116470 479.997833,100.013329 
	C487.637268,99.943481 495.277832,99.999992 503.375427,99.999992 
	C506.123993,107.747032 508.415009,115.494072 510.769653,123.621307 
	C493.165649,124.005493 475.497955,124.009491 457.036133,123.838036 
	C452.879578,115.929794 449.517151,108.197006 446.154724,100.464218 
z"/>
<path fill="#D67A44" opacity="1.000000" stroke="none" 
	d="
M119.037064,454.879761 
	C117.277931,455.586487 115.522240,456.898651 113.759140,456.908630 
	C89.813568,457.044586 65.866959,456.989899 41.920650,457.020416 
	C40.119705,457.022736 38.319130,457.315002 36.232140,457.786438 
	C31.360689,451.629486 26.775484,445.158600 22.433060,438.199036 
	C24.629974,437.473602 26.583511,437.037048 28.538336,437.031189 
	C46.334133,436.978088 64.130295,437.030273 81.925896,436.951294 
	C83.632187,436.943756 85.335449,436.255829 87.350090,436.029419 
	C97.018875,444.255524 107.481873,450.483734 119.037064,454.879761 
z"/>
<path fill="#D26E46" opacity="1.000000" stroke="none" 
	d="
M87.040131,435.883728 
	C85.335449,436.255829 83.632187,436.943756 81.925896,436.951294 
	C64.130295,437.030273 46.334133,436.978088 28.538336,437.031189 
	C26.583511,437.037048 24.629974,437.473602 22.284431,437.879242 
	C17.943468,429.944794 13.993916,421.841553 10.562746,413.368042 
	C29.998537,412.997559 48.915943,412.997314 67.991760,413.309631 
	C74.446823,421.042755 80.743477,428.463226 87.040131,435.883728 
z"/>
<path fill="#CE6249" opacity="1.000000" stroke="none" 
	d="
M67.833351,412.997040 
	C48.915943,412.997314 29.998537,412.997559 10.623677,412.995789 
	C8.103133,405.950562 6.040044,398.907349 3.932689,391.453064 
	C19.084696,391.027618 34.281197,391.050812 49.476990,390.958099 
	C51.744961,390.944244 54.009609,390.385895 57.014118,390.211456 
	C61.112747,397.894653 64.473053,405.445831 67.833351,412.997040 
z"/>
<path fill="#FFFFFF" opacity="1.000000" stroke="none" 
	d="
M67.991760,413.309631 
	C64.473053,405.445831 61.112747,397.894653 57.437248,390.155396 
	C56.072411,384.259277 55.022766,378.551239 53.902267,372.419983 
	C53.545933,366.970428 53.260456,361.944092 52.904549,356.457581 
	C52.880714,350.306610 52.927315,344.615845 52.903534,338.461548 
	C52.879974,332.640411 52.926796,327.282776 52.903149,321.462097 
	C52.880047,315.640991 52.927418,310.282990 52.904167,304.461914 
	C52.880863,297.641479 52.928177,291.284058 52.904602,284.462952 
	C52.881538,275.974854 52.929363,267.950500 52.905441,259.462219 
	C52.881657,248.973724 52.929623,238.949127 52.905624,228.460388 
	C52.880913,218.307022 52.928162,208.617767 52.905178,198.464478 
	C52.881081,191.976303 52.927212,185.952194 52.903275,179.464417 
	C52.880024,173.642807 52.926842,168.284866 52.903484,162.463989 
	C52.880123,156.975693 52.926937,151.950378 52.904045,146.462708 
	C54.222385,139.322754 55.506424,132.620941 57.052116,125.980034 
	C57.631634,123.490211 58.819611,121.142006 59.781212,118.366867 
	C61.555817,113.926193 63.279388,109.847885 65.062210,105.402740 
	C67.398262,101.775162 69.491928,98.365486 71.994659,95.288528 
	C75.771767,90.644821 79.834358,86.233330 83.907738,81.420120 
	C94.686386,71.097923 106.730659,63.368652 120.856094,58.438663 
	C138.951492,52.476322 157.410538,52.913475 175.886581,52.952633 
	C236.038498,53.080132 296.191101,53.092136 356.342834,52.925827 
	C368.936127,52.891010 381.101379,54.736046 393.348145,58.655258 
	C405.400269,62.654289 415.655121,69.138184 425.571045,76.900009 
	C432.467621,84.717323 439.055237,92.396576 445.898804,100.270020 
	C449.517151,108.197006 452.879578,115.929794 456.559937,123.848846 
	C457.927216,130.069687 458.976532,136.104248 460.096069,142.569305 
	C460.452515,148.026184 460.738739,153.052582 461.096069,158.539749 
	C461.119873,164.026443 461.072571,169.052368 461.096680,174.540695 
	C461.120117,181.026993 461.072144,187.050903 461.095459,193.538544 
	C461.119843,203.358398 461.072998,212.714539 461.095215,222.534897 
	C461.118103,231.356461 461.071960,239.713791 461.095459,248.535248 
	C461.119110,255.689880 461.073120,262.380371 461.096863,269.534760 
	C461.120575,276.355957 461.074554,282.713226 461.097778,289.534302 
	C461.120636,297.355560 461.074158,304.713013 461.097015,312.534546 
	C461.119995,319.689514 461.073669,326.380432 461.096863,333.535309 
	C461.120148,339.357269 461.073914,344.715271 461.097290,350.536316 
	C461.121429,356.023285 461.075928,361.047180 461.098022,366.533447 
	C460.217102,372.071136 459.268616,377.146515 458.241150,382.609802 
	C454.527618,392.102692 450.893066,401.207672 447.211914,410.655518 
	C441.835022,420.830994 434.148163,428.712555 426.026855,436.659607 
	C412.816284,446.980560 398.874207,455.203979 382.180389,458.559906 
	C326.846588,463.609650 271.619324,459.878540 216.451233,460.932190 
	C194.968918,461.342499 173.445084,461.639282 151.993439,460.730316 
	C141.202744,460.273102 130.531250,457.002319 119.421463,454.941833 
	C107.481873,450.483734 97.018875,444.255524 87.350098,436.029419 
	C80.743477,428.463226 74.446823,421.042755 67.991760,413.309631 
M361.109833,140.141434 
	C362.719177,142.570435 364.022980,145.286743 365.990356,147.379089 
	C374.923737,156.880020 386.131470,159.797165 398.460114,156.623795 
	C407.335846,154.339188 414.425446,148.972107 418.750854,139.680008 
	C419.778656,135.119598 420.806458,130.559204 421.974335,125.154449 
	C421.653870,123.231621 421.282532,121.315681 421.020752,119.384895 
	C418.471588,100.581192 398.336548,89.760750 380.952087,94.602890 
	C368.498810,98.071541 357.398041,108.556450 357.981567,126.914810 
	C359.034454,131.068161 360.087341,135.221527 361.109833,140.141434 
M389.970459,251.153366 
	C389.257629,245.767212 388.544769,240.381058 387.968231,234.179688 
	C386.589935,228.452682 385.211639,222.725662 383.733734,216.269867 
	C380.767181,209.513962 377.800598,202.758072 374.763062,195.303101 
	C371.786957,190.535568 368.810852,185.768051 365.777344,180.325867 
	C359.222504,173.203247 352.667633,166.080643 345.833160,158.338959 
	C343.179932,156.097107 340.526703,153.855240 337.346405,151.098877 
	C329.932800,146.716217 322.519165,142.333557 314.759827,137.316177 
	C295.981567,127.979507 275.945221,124.091240 255.143051,124.104988 
	C248.296326,124.109512 241.389908,124.966797 234.617218,126.081032 
	C222.117538,128.137466 209.951263,131.433365 198.169510,138.012253 
	C191.122162,142.396866 184.074814,146.781464 176.351074,151.209671 
	C173.529694,153.792557 170.708298,156.375427 167.270554,159.231796 
	C161.473770,165.808395 155.676987,172.384995 149.255722,179.244537 
	C147.132065,182.816284 145.008408,186.388031 142.250107,190.250961 
	C139.796692,195.150345 137.343292,200.049728 134.243607,205.326599 
	C133.961426,206.252396 133.655624,207.171738 133.400803,208.105011 
	C131.317459,215.734726 129.243622,223.367050 126.785217,231.728149 
	C125.912880,240.150955 125.040543,248.573746 124.025978,257.888428 
	C124.740303,264.590820 125.454628,271.293243 126.027374,278.826935 
	C127.407784,284.549438 128.788193,290.271973 130.043625,296.753082 
	C133.012192,303.536621 135.980759,310.320190 139.010117,317.826508 
	C142.062134,322.883575 145.114151,327.940674 148.228271,333.671234 
	C149.158005,334.808258 150.031708,335.997101 151.026917,337.073578 
	C155.965195,342.415192 160.935486,347.727203 166.172668,353.663727 
	C169.078491,356.125122 171.984314,358.586517 175.184189,361.677063 
	C180.105591,364.819244 185.026993,367.961426 190.241440,371.738342 
	C213.909637,385.417328 239.176315,391.384888 266.636383,389.215881 
	C280.806549,388.096588 294.367310,385.357483 307.364014,379.914490 
	C313.142090,377.494659 318.500549,374.072906 324.767944,370.998260 
	C329.549255,367.680878 334.330566,364.363525 339.730957,360.772491 
	C342.521942,358.198669 345.312927,355.624878 348.731873,352.770782 
	C354.527802,345.860229 360.323700,338.949646 366.744232,331.752167 
	C369.203247,327.513519 371.662262,323.274872 374.736816,318.696289 
	C376.862915,313.478333 378.989014,308.260406 381.750671,302.676727 
	C383.444855,297.117493 385.139038,291.558228 386.972290,285.158661 
	C387.592712,279.772156 388.213135,274.385651 388.973419,268.143097 
	C389.260223,262.761749 389.547028,257.380371 389.970459,251.153366 
z"/>
<path fill="#B21B84" opacity="1.000000" stroke="none" 
	d="
M346.112793,158.958023 
	C352.667633,166.080643 359.222504,173.203247 365.348297,180.662689 
	C341.354340,180.999298 317.789124,180.953903 294.225006,181.090332 
	C292.465973,181.100510 290.714508,182.412933 288.577820,183.060272 
	C278.121826,179.107956 267.797424,176.032471 256.895020,177.101105 
	C247.897507,177.983032 238.986557,179.747711 229.757797,180.802536 
	C227.678925,180.322357 225.879745,180.024017 224.080017,180.020569 
	C205.952881,179.985809 187.824951,180.089798 169.698792,179.951782 
	C163.090469,179.901459 156.486282,179.307541 149.880219,178.961609 
	C155.676987,172.384995 161.473770,165.808395 168.054871,159.107849 
	C227.930405,158.975281 287.021606,158.966644 346.112793,158.958023 
z"/>
<path fill="#C64751" opacity="1.000000" stroke="none" 
	d="
M366.119598,332.039062 
	C360.323700,338.949646 354.527802,345.860229 348.027252,352.741089 
	C345.533691,352.474243 343.744843,352.031036 341.955750,352.029907 
	C285.367218,351.993500 228.778625,351.988739 172.190109,352.044250 
	C170.091232,352.046326 167.993027,352.699738 165.894501,353.049622 
	C160.935486,347.727203 155.965195,342.415192 151.026917,337.073578 
	C150.031708,335.997101 149.158005,334.808258 148.600601,333.273071 
	C151.081589,332.583313 153.189514,332.044434 155.298996,332.038269 
	C176.682037,331.975616 198.065430,332.027710 219.448395,331.951324 
	C221.312943,331.944672 223.175079,331.253143 225.419617,330.940430 
	C235.948746,334.929504 246.324448,337.111023 257.344177,337.156830 
	C268.392822,337.202789 278.649780,334.420319 289.277740,331.122620 
	C291.617218,331.525879 293.564056,331.964386 295.512054,331.969360 
	C319.047821,332.029724 342.583710,332.026062 366.119598,332.039062 
z"/>
<path fill="#A91C8D" opacity="1.000000" stroke="none" 
	d="
M177.027466,151.166077 
	C184.074814,146.781464 191.122162,142.396866 198.923492,138.150482 
	C201.298706,138.525818 202.919678,138.967987 204.541153,138.969833 
	C239.465332,139.009537 274.389618,139.016663 309.313721,138.955231 
	C311.244904,138.951843 313.174988,138.300598 315.105560,137.950897 
	C322.519165,142.333557 329.932800,146.716217 337.157104,151.534241 
	C335.366119,152.312592 333.764771,152.953674 332.162750,152.955368 
	C282.048859,153.008560 231.934860,153.016403 181.821060,152.922806 
	C180.222107,152.919830 178.625275,151.777359 177.027466,151.166077 
z"/>
<path fill="#CA554B" opacity="1.000000" stroke="none" 
	d="
M324.049469,371.105896 
	C318.500549,374.072906 313.142090,377.494659 307.364014,379.914490 
	C294.367310,385.357483 280.806549,388.096588 266.636383,389.215881 
	C239.176315,391.384888 213.909637,385.417328 190.380051,371.106323 
	C191.489838,370.316528 192.460938,370.021210 193.432205,370.020691 
	C235.593704,369.997467 277.755219,369.989899 319.916687,370.046600 
	C321.294739,370.048462 322.671906,370.737305 324.049469,371.105896 
z"/>
<path fill="#9C1E9A" opacity="1.000000" stroke="none" 
	d="
M357.882660,126.041138 
	C357.398041,108.556450 368.498810,98.071541 380.952087,94.602890 
	C398.336548,89.760750 418.471588,100.581192 421.020752,119.384895 
	C421.282532,121.315681 421.653870,123.231621 421.446655,125.576790 
	C399.906860,126.013130 378.894775,126.027138 357.882660,126.041138 
z"/>
<path fill="#C84E4D" opacity="1.000000" stroke="none" 
	d="
M324.408691,371.052063 
	C322.671906,370.737305 321.294739,370.048462 319.916687,370.046600 
	C277.755219,369.989899 235.593704,369.997467 193.432205,370.020691 
	C192.460938,370.021210 191.489838,370.316528 190.233536,370.788940 
	C185.026993,367.961426 180.105591,364.819244 175.428802,361.194214 
	C177.462326,360.474243 179.251099,360.031281 181.040176,360.029968 
	C231.631744,359.992737 282.223328,359.987457 332.814850,360.044250 
	C334.914215,360.046600 337.012878,360.697388 339.111877,361.046143 
	C334.330566,364.363525 329.549255,367.680878 324.408691,371.052063 
z"/>
<path fill="#C21C73" opacity="1.000000" stroke="none" 
	d="
M127.166885,230.998566 
	C129.243622,223.367050 131.317459,215.734726 133.400803,208.105011 
	C133.655624,207.171738 133.961426,206.252396 134.958008,205.306946 
	C137.623444,205.525070 139.573883,205.963486 141.525589,205.969284 
	C159.295624,206.022034 177.065887,205.999405 194.806915,206.337524 
	C190.129593,214.782806 185.481430,222.889389 180.375061,230.997314 
	C162.333542,230.998611 144.750214,230.998596 127.166885,230.998566 
z"/>
<path fill="#C74B4E" opacity="1.000000" stroke="none" 
	d="
M339.421387,360.909302 
	C337.012878,360.697388 334.914215,360.046600 332.814850,360.044250 
	C282.223328,359.987457 231.631744,359.992737 181.040176,360.029968 
	C179.251099,360.031281 177.462326,360.474243 175.281769,360.879639 
	C171.984314,358.586517 169.078491,356.125122 166.033585,353.356689 
	C167.993027,352.699738 170.091232,352.046326 172.190109,352.044250 
	C228.778625,351.988739 285.367218,351.993500 341.955750,352.029907 
	C343.744843,352.031036 345.533691,352.474243 347.713257,352.881226 
	C345.312927,355.624878 342.521942,358.198669 339.421387,360.909302 
z"/>
<path fill="#C3256B" opacity="1.000000" stroke="none" 
	d="
M126.976051,231.363358 
	C144.750214,230.998596 162.333542,230.998611 180.437408,231.386169 
	C179.582565,240.181580 178.207184,248.589447 176.373688,256.997925 
	C158.666443,256.997894 141.417328,256.997223 124.168205,256.996552 
	C125.040543,248.573746 125.912880,240.150955 126.976051,231.363358 
z"/>
<path fill="#C11B75" opacity="1.000000" stroke="none" 
	d="
M374.834045,196.002167 
	C377.800598,202.758072 380.767181,209.513962 383.371399,216.646683 
	C380.223206,217.348801 377.438843,217.939636 374.651215,217.955475 
	C358.823517,218.045349 342.994995,217.997772 327.012054,217.677094 
	C321.531281,210.584000 316.205261,203.810776 311.355286,197.025909 
	C323.266602,197.009521 334.703705,197.131210 346.136475,196.960953 
	C355.704987,196.818481 365.268372,196.334778 374.834045,196.002167 
z"/>
<path fill="#A41D92" opacity="1.000000" stroke="none" 
	d="
M314.932678,137.633545 
	C313.174988,138.300598 311.244904,138.951843 309.313721,138.955231 
	C274.389618,139.016663 239.465332,139.009537 204.541153,138.969833 
	C202.919678,138.967987 201.298706,138.525818 199.286865,138.118958 
	C209.951263,131.433365 222.117538,128.137466 234.617218,126.081032 
	C241.389908,124.966797 248.296326,124.109512 255.143051,124.104988 
	C275.945221,124.091240 295.981567,127.979507 314.932678,137.633545 
z"/>
<path fill="#C5395C" opacity="1.000000" stroke="none" 
	d="
M138.949341,317.103729 
	C135.980759,310.320190 133.012192,303.536621 130.563583,296.375183 
	C147.698669,295.997772 164.313950,296.030457 180.928696,295.950226 
	C182.634857,295.941986 184.337769,295.258850 186.354736,295.056152 
	C191.457718,301.776459 196.248138,308.329498 200.757904,315.200043 
	C198.674057,315.678345 196.871185,315.975067 195.067673,315.978821 
	C178.072601,316.014435 161.077286,315.968597 144.082520,316.048248 
	C142.369843,316.056274 140.660324,316.735840 138.949341,317.103729 
z"/>
<path fill="#BA1A7D" opacity="1.000000" stroke="none" 
	d="
M374.798553,195.652634 
	C365.268372,196.334778 355.704987,196.818481 346.136475,196.960953 
	C334.703705,197.131210 323.266602,197.009521 311.045502,196.889267 
	C303.159607,192.216171 296.059570,187.668091 288.959534,183.119995 
	C290.714508,182.412933 292.465973,181.100510 294.225006,181.090332 
	C317.789124,180.953903 341.354340,180.999298 365.377014,181.000031 
	C368.810852,185.768051 371.786957,190.535568 374.798553,195.652634 
z"/>
<path fill="#C64156" opacity="1.000000" stroke="none" 
	d="
M138.979736,317.465118 
	C140.660324,316.735840 142.369843,316.056274 144.082520,316.048248 
	C161.077286,315.968597 178.072601,316.014435 195.067673,315.978821 
	C196.871185,315.975067 198.674057,315.678345 201.068024,315.342102 
	C209.451996,320.404358 217.245163,325.642059 225.038345,330.879700 
	C223.175079,331.253143 221.312943,331.944672 219.448395,331.951324 
	C198.065430,332.027710 176.682037,331.975616 155.298996,332.038269 
	C153.189514,332.044434 151.081589,332.583313 148.569550,332.936340 
	C145.114151,327.940674 142.062134,322.883575 138.979736,317.465118 
z"/>
<path fill="#C42B67" opacity="1.000000" stroke="none" 
	d="
M124.097092,257.442505 
	C141.417328,256.997223 158.666443,256.997894 176.444885,257.453644 
	C177.688629,264.593842 178.403076,271.278992 178.641602,277.974670 
	C160.833435,277.988678 143.501190,277.992157 126.168953,277.995636 
	C125.454628,271.293243 124.740303,264.590820 124.097092,257.442505 
z"/>
<path fill="#AD1C89" opacity="1.000000" stroke="none" 
	d="
M176.689270,151.187881 
	C178.625275,151.777359 180.222107,152.919830 181.821060,152.922806 
	C231.934860,153.016403 282.048859,153.008560 332.162750,152.955368 
	C333.764771,152.953674 335.366119,152.312592 337.420624,151.791489 
	C340.526703,153.855240 343.179932,156.097107 345.972961,158.648499 
	C287.021606,158.966644 227.930405,158.975281 168.363068,158.971115 
	C170.708298,156.375427 173.529694,153.792557 176.689270,151.187881 
z"/>
<path fill="#C11B75" opacity="1.000000" stroke="none" 
	d="
M194.836075,205.998810 
	C177.065887,205.999405 159.295624,206.022034 141.525589,205.969284 
	C139.573883,205.963486 137.623444,205.525070 135.281158,205.118210 
	C137.343292,200.049728 139.796692,195.150345 143.043732,190.118042 
	C161.757431,189.990677 179.678329,189.904526 197.597000,190.066956 
	C202.020294,190.107071 206.436249,190.955490 210.574783,191.669449 
	C205.141357,196.603989 199.988708,201.301392 194.836075,205.998810 
z"/>
<path fill="#C64156" opacity="1.000000" stroke="none" 
	d="
M366.431915,331.895630 
	C342.583710,332.026062 319.047821,332.029724 295.512054,331.969360 
	C293.564056,331.964386 291.617218,331.525879 289.450897,330.808655 
	C296.115021,326.206329 302.998077,322.084137 310.357117,317.973724 
	C329.147766,317.990326 347.462677,317.951874 365.776917,318.046173 
	C368.559998,318.060486 371.339935,318.690826 374.121277,319.036255 
	C371.662262,323.274872 369.203247,327.513519 366.431915,331.895630 
z"/>
<path fill="#C43063" opacity="1.000000" stroke="none" 
	d="
M126.098160,278.411285 
	C143.501190,277.992157 160.833435,277.988678 178.963043,278.164764 
	C181.854355,283.859161 183.948273,289.373993 186.042191,294.888855 
	C184.337769,295.258850 182.634857,295.941986 180.928696,295.950226 
	C164.313950,296.030457 147.698669,295.997772 130.626068,295.995880 
	C128.788193,290.271973 127.407784,284.549438 126.098160,278.411285 
z"/>
<path fill="#C5375E" opacity="1.000000" stroke="none" 
	d="
M386.833252,285.998993 
	C385.139038,291.558228 383.444855,297.117493 380.956665,302.846802 
	C363.122894,303.011230 346.083008,303.036865 329.043671,302.951447 
	C327.345886,302.942963 325.651520,302.258087 323.984131,301.529327 
	C326.730743,296.114410 329.448822,291.057343 332.625122,286.000092 
	C350.999969,285.999634 368.916595,285.999298 386.833252,285.998993 
z"/>
<path fill="#C21C73" opacity="1.000000" stroke="none" 
	d="
M327.166809,217.996948 
	C342.994995,217.997772 358.823517,218.045349 374.651215,217.955475 
	C377.438843,217.939636 380.223206,217.348801 383.421204,217.011078 
	C385.211639,222.725662 386.589935,228.452682 387.442566,234.588623 
	C372.338379,234.997955 357.759460,234.945297 343.181610,235.045547 
	C340.412079,235.064590 337.646698,235.689194 334.558411,235.843887 
	C331.880524,229.767899 329.523651,223.882416 327.166809,217.996948 
z"/>
<path fill="#C53C59" opacity="1.000000" stroke="none" 
	d="
M323.955566,301.887146 
	C325.651520,302.258087 327.345886,302.942963 329.043671,302.951447 
	C346.083008,303.036865 363.122894,303.011230 380.638855,303.029663 
	C378.989014,308.260406 376.862915,313.478333 374.429077,318.866272 
	C371.339935,318.690826 368.559998,318.060486 365.776917,318.046173 
	C347.462677,317.951874 329.147766,317.990326 310.498077,317.666718 
	C314.760590,312.194336 319.358063,307.040741 323.955566,301.887146 
z"/>
<path fill="#C43063" opacity="1.000000" stroke="none" 
	d="
M386.902771,285.578827 
	C368.916595,285.999298 350.999969,285.999634 332.565186,285.615601 
	C333.420197,279.820465 334.793304,274.409698 336.624664,268.999359 
	C354.333130,268.999573 371.583344,268.999359 388.833588,268.999146 
	C388.213135,274.385651 387.592712,279.772156 386.902771,285.578827 
z"/>
<path fill="#C42B67" opacity="1.000000" stroke="none" 
	d="
M388.903503,268.571106 
	C371.583344,268.999359 354.333130,268.999573 336.715332,268.590302 
	C336.620575,262.786713 336.893402,257.392639 337.624451,251.999084 
	C355.333038,251.999390 372.583435,251.999207 389.833801,251.999023 
	C389.547028,257.380371 389.260223,262.761749 388.903503,268.571106 
z"/>
<path fill="#C3256B" opacity="1.000000" stroke="none" 
	d="
M389.902130,251.576202 
	C372.583435,251.999207 355.333038,251.999390 337.554993,251.566620 
	C336.311371,246.100571 335.595398,241.067490 334.879425,236.034409 
	C337.646698,235.689194 340.412079,235.064590 343.181610,235.045547 
	C357.759460,234.945297 372.338379,234.997955 387.374420,234.996216 
	C388.544769,240.381058 389.257629,245.767212 389.902130,251.576202 
z"/>
<path fill="#A41D92" opacity="1.000000" stroke="none" 
	d="
M357.932129,126.477974 
	C378.894775,126.027138 399.906860,126.013130 421.376587,125.998962 
	C420.806458,130.559204 419.778656,135.119598 418.037109,139.695648 
	C416.699646,139.495941 416.075165,139.090469 415.452240,139.092850 
	C397.348145,139.161880 379.244202,139.271652 361.140228,139.374893 
	C360.087341,135.221527 359.034454,131.068161 357.932129,126.477974 
z"/>
<path fill="#A91C8D" opacity="1.000000" stroke="none" 
	d="
M361.125031,139.758163 
	C379.244202,139.271652 397.348145,139.161880 415.452240,139.092850 
	C416.075165,139.090469 416.699646,139.495941 417.714294,139.880402 
	C414.425446,148.972107 407.335846,154.339188 398.460114,156.623795 
	C386.131470,159.797165 374.923737,156.880020 365.990356,147.379089 
	C364.022980,145.286743 362.719177,142.570435 361.125031,139.758163 
z"/>
<path fill="#BA1A7D" opacity="1.000000" stroke="none" 
	d="
M210.855576,191.432343 
	C206.436249,190.955490 202.020294,190.107071 197.597000,190.066956 
	C179.678329,189.904526 161.757431,189.990677 143.361053,189.972443 
	C145.008408,186.388031 147.132065,182.816284 149.567963,179.103073 
	C156.486282,179.307541 163.090469,179.901459 169.698792,179.951782 
	C187.824951,180.089798 205.952881,179.985809 224.080017,180.020569 
	C225.879745,180.024017 227.678925,180.322357 229.576538,181.117920 
	C223.401672,184.978760 217.128616,188.205551 210.855576,191.432343 
z"/>
<path fill="#FFFFFF" opacity="1.000000" stroke="none" 
	d="
M210.574783,191.669464 
	C217.128616,188.205551 223.401672,184.978760 229.855988,181.436615 
	C238.986557,179.747711 247.897507,177.983032 256.895020,177.101105 
	C267.797424,176.032471 278.121826,179.107956 288.577820,183.060272 
	C296.059570,187.668091 303.159607,192.216171 310.569427,196.900909 
	C316.205261,203.810776 321.531281,210.584000 327.012085,217.677078 
	C329.523651,223.882416 331.880524,229.767899 334.558411,235.843887 
	C335.595398,241.067490 336.311371,246.100571 337.096802,251.566116 
	C336.893402,257.392639 336.620575,262.786713 336.257111,268.589844 
	C334.793304,274.409698 333.420197,279.820465 332.106995,285.615753 
	C329.448822,291.057343 326.730743,296.114410 323.984131,301.529327 
	C319.358063,307.040741 314.760590,312.194336 310.022125,317.654938 
	C302.998077,322.084137 296.115021,326.206329 289.058807,330.642487 
	C278.649780,334.420319 268.392822,337.202789 257.344177,337.156830 
	C246.324448,337.111023 235.948746,334.929504 225.419617,330.940430 
	C217.245163,325.642059 209.451996,320.404358 201.348694,315.024597 
	C196.248138,308.329498 191.457718,301.776459 186.354736,295.056152 
	C183.948273,289.373993 181.854355,283.859161 179.438965,278.154205 
	C178.403076,271.278992 177.688629,264.593842 176.902985,257.453003 
	C178.207184,248.589447 179.582565,240.181580 180.895599,231.384842 
	C185.481430,222.889389 190.129593,214.782806 194.806915,206.337524 
	C199.988708,201.301392 205.141357,196.603989 210.574783,191.669464 
z"/>
</svg>