<svg version="1.1" id="Layer_1" xmlns="http://www.w3.org/2000/svg" xmlns:xlink="http://www.w3.org/1999/xlink" x="0px" y="0px"
	 width="100%" viewBox="0 0 435 126" enable-background="new 0 0 435 126" xml:space="preserve">
<path fill="#FEFDFC" opacity="1.000000" stroke="none" 
	d="
M289.000000,127.000000 
	C194.000015,127.000000 99.499992,126.976219 5.000155,127.095673 
	C1.576076,127.099998 0.888085,126.425835 0.901481,122.999657 
	C1.055920,83.500259 1.041892,43.999912 0.916114,4.500316 
	C0.906614,1.516983 1.518005,0.916926 4.500003,0.918869 
	C147.166580,1.011812 289.833252,1.011806 432.499847,0.918902 
	C435.481445,0.916960 436.093384,1.516433 436.083923,4.500164 
	C435.958282,44.166428 435.958344,83.833351 436.083893,123.499619 
	C436.093323,126.482742 435.483276,127.090721 432.499908,127.083328 
	C384.833496,126.965103 337.166718,127.000000 289.000000,127.000000 
z"/>
<path fill="#DA9868" opacity="1.000000" stroke="none" 
	d="
M252.998322,47.714539 
	C242.509766,47.720093 232.518234,47.598324 222.533188,47.798916 
	C219.156647,47.866753 217.711288,47.012623 217.796188,43.398228 
	C218.003311,34.579262 217.955444,25.752834 217.900864,16.930088 
	C217.884171,14.229546 218.792831,13.152787 221.667389,13.100790 
	C236.805130,12.826971 251.939133,12.349842 267.074982,11.964820 
	C268.924805,11.917764 270.940125,11.778068 270.978058,14.525926 
	C271.016724,17.323484 269.182098,17.645853 266.953247,17.663305 
	C253.969727,17.764973 240.986786,17.940632 228.003250,18.043043 
	C224.635880,18.069605 222.325790,18.572279 222.560211,23.011374 
	C222.735657,26.333311 223.733322,27.335390 226.929153,27.287756 
	C240.078568,27.091770 253.230560,27.051788 266.381775,27.014631 
	C268.571564,27.008442 271.596100,26.212969 271.590088,29.846481 
	C271.584106,33.449406 268.537506,32.668274 266.357666,32.732544 
	C253.385986,33.114960 240.413376,33.493179 227.438400,33.717705 
	C224.252899,33.772831 222.675812,34.444927 222.613953,38.177128 
	C222.549042,42.094521 224.627838,42.000210 227.309021,41.986767 
	C240.460480,41.920841 253.612427,41.871109 266.763672,41.931015 
	C268.819061,41.940376 271.904449,40.892944 271.711975,44.870346 
	C271.531372,48.602272 268.625061,47.645065 266.482880,47.695751 
	C262.156830,47.798115 257.826477,47.718105 252.998322,47.714539 
z"/>
<path fill="#DCA173" opacity="1.000000" stroke="none" 
	d="
M377.597229,27.706480 
	C384.912811,25.485935 392.125031,26.660917 399.241852,26.203112 
	C401.094391,26.083942 401.992554,26.992878 401.994965,28.878983 
	C401.997772,31.106804 400.644592,31.708858 398.757050,31.740002 
	C393.096832,31.833393 387.436554,31.924335 381.776215,32.009346 
	C380.277557,32.031857 378.766754,31.916201 377.282990,32.070496 
	C375.803253,32.224369 373.344299,31.384182 373.481628,33.915733 
	C373.595398,36.013901 375.826477,35.188828 377.171234,35.199936 
	C383.498291,35.252209 389.826294,35.195709 396.153931,35.177197 
	C396.320343,35.176708 396.488739,35.147396 396.652893,35.164078 
	C398.932800,35.395786 402.388916,33.988766 402.499908,37.825867 
	C402.621979,42.045589 398.865387,40.816334 396.478241,40.939369 
	C390.002319,41.273144 383.491333,40.660927 377.032227,41.634182 
	C376.060425,41.780602 375.009491,41.621071 374.238403,42.682972 
	C374.757751,44.745750 376.547394,44.026703 377.810059,44.041500 
	C384.469727,44.119541 391.131042,44.045639 397.791443,44.085930 
	C399.920746,44.098812 402.569214,43.790661 402.591736,46.971127 
	C402.614716,50.213768 399.930084,49.815056 397.821106,49.825901 
	C389.495026,49.868702 381.165009,49.706230 372.844025,49.918259 
	C369.255249,50.009705 368.074127,48.569061 368.210358,45.219234 
	C368.365906,41.394749 368.310730,37.561146 368.321472,33.731434 
	C368.340759,26.858765 368.332764,26.858742 375.675598,27.352448 
	C376.646027,29.818476 374.811401,29.305897 373.662292,29.546303 
	C370.956848,30.112316 370.136261,32.097027 370.566803,34.402035 
	C371.093811,37.223610 370.978485,39.917362 370.553131,42.725525 
	C370.134399,45.489864 371.379913,47.078526 374.494934,47.027798 
	C380.258514,46.933929 386.025299,46.995060 391.790771,47.000931 
	C386.308929,46.991352 380.827026,46.989426 375.345215,46.994221 
	C372.776520,46.996471 370.681366,46.504883 370.522491,43.328773 
	C370.359375,40.067341 372.297516,38.900558 375.118103,38.677929 
	C381.071014,38.208057 387.025482,37.706367 393.009552,38.077934 
	C387.093384,37.652985 381.195923,38.432175 375.289917,38.304897 
	C372.804291,38.251331 370.658813,37.406925 370.538300,34.335381 
	C370.431915,31.624477 371.477753,29.833851 374.378571,29.528427 
	C374.872192,29.476454 375.366577,29.453207 375.837799,29.264463 
	C376.485657,29.004986 376.898865,28.489841 377.597229,27.706480 
z"/>
<path fill="#DEA176" opacity="1.000000" stroke="none" 
	d="
M96.389267,32.110668 
	C98.580368,36.071171 97.503883,40.219025 97.416542,44.291603 
	C97.386024,45.714909 96.560699,46.829475 94.843170,46.695862 
	C93.282677,46.574459 92.343018,45.670795 92.290741,44.155655 
	C92.204796,41.665100 92.322060,39.168198 92.318466,36.674023 
	C92.301743,25.052792 88.456161,20.089724 76.985565,17.570061 
	C68.025070,15.601773 59.471985,16.888374 51.649891,21.913713 
	C47.736378,24.427965 45.553364,27.843931 45.814117,32.722439 
	C46.018112,36.538937 45.852943,40.375454 45.841469,44.203045 
	C45.836231,45.948704 45.702454,47.777645 43.376755,47.726158 
	C41.368580,47.681702 41.181713,46.013493 41.182209,44.448349 
	C41.184277,37.959213 41.080383,31.465942 41.287071,24.982851 
	C41.379234,22.091940 42.492470,19.269630 45.186646,17.803772 
	C58.381466,10.624681 72.027390,8.311404 86.355568,14.391322 
	C91.793747,16.698921 95.193794,20.693909 96.482216,26.750683 
	C93.991035,27.661688 93.825218,25.517563 92.931686,24.281418 
	C91.765007,22.667412 90.657295,21.005493 88.964485,19.752075 
	C94.136810,25.352730 95.126427,27.744255 95.009674,34.285683 
	C95.116753,33.450493 95.327721,32.664890 96.389267,32.110668 
z"/>
<path fill="#C5CFDA" opacity="1.000000" stroke="none" 
	d="
M57.260860,114.531799 
	C49.486954,114.866226 41.825241,115.908218 34.388771,113.844315 
	C27.822355,112.021881 22.927759,107.253601 17.686911,103.240822 
	C16.037451,101.977882 17.917618,100.789284 19.147888,99.983521 
	C24.151991,96.706093 29.760168,98.367050 35.586967,98.056602 
	C42.489174,102.161240 48.487644,106.866180 54.956657,110.873528 
	C56.243187,111.670502 57.558281,112.412804 57.260860,114.531799 
z"/>
<path fill="#DBA175" opacity="1.000000" stroke="none" 
	d="
M350.775208,45.694580 
	C353.832001,45.077034 355.463684,43.810238 355.017670,40.535812 
	C354.793549,38.890400 354.866058,37.002979 357.341034,37.003910 
	C360.174011,37.004974 359.728943,39.109222 359.790771,40.920006 
	C360.111603,50.315296 360.121674,50.294319 351.017761,50.059155 
	C346.197723,49.934647 341.365509,50.063850 336.556610,49.778461 
	C330.073395,49.393711 326.155304,45.360218 326.100189,39.408142 
	C326.043091,33.248547 330.445099,27.674547 336.353271,27.320797 
	C343.148254,26.913954 349.981842,27.152296 356.798676,27.111748 
	C358.744781,27.100170 360.054352,27.763000 359.845337,30.014107 
	C359.633118,32.299820 357.901398,32.513020 356.208435,32.491360 
	C352.059021,32.438255 347.909973,32.126839 343.763428,32.170578 
	C341.290039,32.196667 338.759979,32.451603 336.368042,33.052288 
	C333.865295,33.680813 331.362946,35.455448 331.417694,37.979610 
	C331.474152,40.585300 333.617249,42.524887 336.484406,43.374397 
	C340.377136,44.527786 344.424683,43.947968 348.594116,45.051964 
	C344.177704,48.678307 339.185974,47.242989 334.547272,45.672520 
	C330.779572,44.396935 328.390167,41.342041 328.795380,36.926765 
	C328.781097,42.409012 330.998657,45.484173 336.098755,46.491554 
	C341.963898,47.650040 347.957916,46.714077 353.883667,47.392212 
	C356.362793,47.675919 356.663513,46.815079 357.679443,42.180119 
	C356.427948,47.743462 354.623291,48.726677 350.775208,45.694580 
z"/>
<path fill="#E2AC83" opacity="1.000000" stroke="none" 
	d="
M115.923363,31.341740 
	C114.733902,32.385105 112.952042,32.132729 112.278229,33.935795 
	C113.300812,35.859013 115.164375,35.148701 116.664658,35.158890 
	C123.311035,35.204044 129.958572,35.065369 136.605225,35.095242 
	C138.263657,35.102692 140.549576,34.293255 140.874237,37.131634 
	C141.191727,39.907337 139.547272,41.158539 137.064331,41.255131 
	C131.096863,41.487286 125.121681,41.516762 119.153038,41.725819 
	C117.244209,41.792683 115.183235,41.150017 113.416840,42.572144 
	C113.784164,44.654202 115.437370,43.959717 116.554665,43.973690 
	C123.200218,44.056793 129.847153,44.034519 136.493637,44.034248 
	C138.826767,44.034153 140.949692,44.310265 140.902267,47.384079 
	C140.853165,50.566391 138.393555,49.938297 136.540222,49.943745 
	C128.232864,49.968159 119.919197,49.692204 111.620216,49.940075 
	C107.494362,50.063305 105.658066,48.839596 106.233406,44.589283 
	C106.542625,42.304897 105.907684,39.925117 107.093384,37.340450 
	C110.156174,38.147232 108.970879,40.611694 108.954208,42.556053 
	C108.927193,45.707840 110.215904,47.071869 113.399086,47.026546 
	C119.602722,46.938225 125.808884,47.002583 132.013992,46.998787 
	C126.056435,46.988483 120.098846,46.987583 114.141335,46.992649 
	C110.674606,46.995598 108.810402,45.533768 109.289429,41.465240 
	C110.005539,39.957272 110.983917,39.352299 112.565628,38.858841 
	C117.111664,38.470421 121.226845,38.686981 125.756927,38.604820 
	C126.711296,38.593838 127.247345,38.587017 128.160675,38.584183 
	C129.897751,38.654438 131.257660,38.704323 132.799805,38.628105 
	C127.239838,38.008175 121.480377,38.525860 115.731934,38.353428 
	C113.920105,38.299076 112.084084,38.446632 110.056381,37.400791 
	C108.852257,35.961361 108.773392,34.601830 109.120117,32.770309 
	C109.763557,31.228312 110.672874,30.554611 112.234283,30.052523 
	C113.843430,29.864698 114.947800,30.039478 115.923363,31.341740 
z"/>
<path fill="#637F98" opacity="1.000000" stroke="none" 
	d="
M155.599258,97.632645 
	C156.442047,97.748421 156.886795,97.775406 157.663696,97.760086 
	C159.874146,97.324089 161.775772,97.593529 164.056412,97.532776 
	C164.678116,97.654152 164.908676,97.761238 165.223083,98.232132 
	C162.428329,101.818558 158.280823,99.193604 154.306931,101.131989 
	C158.921143,105.592804 165.372818,107.445793 168.665009,113.230927 
	C168.596710,113.818192 168.522247,114.046494 168.205750,114.541595 
	C163.288208,114.837540 158.612717,114.866699 153.477249,114.826103 
	C148.386978,111.532700 144.125549,107.761978 138.944717,105.352631 
	C137.891098,104.862640 136.969406,104.104736 136.273407,103.145851 
	C134.335983,100.476578 135.249741,98.335838 138.575653,98.065125 
	C142.217316,97.768707 145.889694,98.255569 149.925507,97.679550 
	C151.943954,97.477982 153.572571,97.508881 155.599258,97.632645 
z"/>
<path fill="#506F83" opacity="1.000000" stroke="none" 
	d="
M412.569763,97.795456 
	C417.286896,99.685692 422.563995,100.940453 422.155670,106.751678 
	C421.744812,112.599113 416.438934,113.663132 411.383911,114.804260 
	C410.883698,114.535889 410.757843,114.298599 410.698242,113.665001 
	C411.639465,111.887085 413.225250,111.652397 414.514252,110.934807 
	C419.234344,108.307190 419.288757,105.504318 414.703125,102.452400 
	C413.303558,101.520912 411.859650,100.613930 410.145752,100.559029 
	C401.494354,100.281837 392.840576,100.214653 384.190125,100.595909 
	C383.019745,100.647484 381.964600,101.259422 380.442017,101.716217 
	C365.601410,99.152611 351.046143,101.184952 336.565765,100.576973 
	C333.760315,100.459175 330.945496,100.555061 327.693481,100.535889 
	C326.108582,100.420898 324.967590,100.379707 323.421936,100.725723 
	C321.590454,101.023514 320.237213,100.482025 318.419617,100.480659 
	C313.449188,100.459015 308.899994,100.505280 303.936127,100.452240 
	C296.716431,102.655838 289.773651,99.526344 282.536804,101.025200 
	C281.564728,101.149605 281.002930,101.166328 280.012939,101.113167 
	C272.754333,100.145134 265.925812,100.086731 258.663208,101.208855 
	C257.332214,101.330833 256.439423,101.342491 255.095459,101.209778 
	C248.699631,99.657333 242.470901,101.510635 236.194427,99.327454 
	C235.823502,98.698570 235.815842,98.377281 236.226135,97.809418 
	C295.138062,97.489807 353.632080,97.468613 412.569763,97.795456 
z"/>
<path fill="#DDA479" opacity="1.000000" stroke="none" 
	d="
M291.158936,49.428322 
	C286.215363,51.457779 284.381042,50.288761 284.429718,45.517647 
	C284.480316,40.556187 284.571838,35.594887 284.581329,30.633390 
	C284.585419,28.490191 285.235870,27.060741 287.670227,27.079296 
	C294.332397,27.130081 301.017792,26.837559 307.650238,27.303570 
	C314.090057,27.756052 318.768860,33.191643 318.798950,39.284180 
	C318.826813,44.924248 314.680511,48.815281 307.285034,49.606060 
	C306.414001,46.662567 308.938690,47.027092 310.317230,46.338539 
	C313.825348,44.586258 315.889282,42.152309 315.753937,37.940273 
	C315.637085,34.303825 313.982971,38.759777 313.215546,37.295784 
	C309.443054,34.107510 305.387634,33.257870 300.895233,33.354420 
	C297.277802,33.432171 293.602081,33.887875 289.720764,32.603577 
	C288.386322,29.961094 290.009857,29.551502 291.751038,29.553009 
	C297.020203,29.557571 302.299591,29.293962 307.560272,29.687727 
	C302.018097,29.299715 296.458801,29.482004 290.909088,29.563614 
	C289.674377,29.581774 288.030121,29.870235 289.197449,32.218163 
	C291.208954,35.872631 289.963165,39.607674 290.708832,43.473152 
	C289.862823,45.887508 290.076324,47.715374 291.158936,49.428322 
z"/>
<path fill="#5A7995" opacity="1.000000" stroke="none" 
	d="
M168.312622,114.202553 
	C165.871994,110.207191 161.926880,108.511475 158.757401,105.943810 
	C157.628082,105.028915 156.102020,104.620667 154.821014,103.871742 
	C153.315125,102.991318 152.083832,101.580589 152.614822,99.879318 
	C153.095749,98.338409 154.914993,99.078468 156.144485,99.032166 
	C158.784332,98.932755 161.430496,99.000854 164.537033,99.001099 
	C165.607224,98.456566 166.315628,98.207100 167.499527,98.377312 
	C173.569839,102.465988 178.357208,107.628021 184.327194,111.268616 
	C185.073441,111.723694 185.477783,112.397903 185.392273,113.640442 
	C184.184570,114.843208 182.881973,114.320236 181.343597,114.670502 
	C178.954071,114.842773 176.908585,114.873344 174.427155,114.854164 
	C172.238892,114.152550 170.405746,114.669304 168.312622,114.202553 
z"/>
<path fill="#8698AC" opacity="1.000000" stroke="none" 
	d="
M77.774643,98.357063 
	C83.032967,98.018951 88.058479,97.970261 93.546364,97.996613 
	C96.568466,101.285294 100.159874,103.009857 103.610886,105.035316 
	C107.335571,107.221382 111.722763,109.011505 112.248978,114.459709 
	C107.660187,114.788826 103.301025,114.835381 98.482880,114.816040 
	C93.726601,108.753105 86.316223,107.517143 80.727158,103.481987 
	C78.969734,102.213173 76.725830,101.509735 77.774643,98.357063 
z"/>
<path fill="#6C849B" opacity="1.000000" stroke="none" 
	d="
M149.622650,97.868240 
	C147.072479,99.866409 143.852814,98.581619 140.795181,99.012985 
	C139.259308,99.229668 136.976089,98.131424 136.391571,100.147919 
	C135.694962,102.551178 137.966400,103.661621 139.780167,104.318848 
	C144.404297,105.994423 147.666275,109.719025 151.867188,111.997490 
	C152.699860,112.449112 152.930466,113.201576 153.004517,114.408066 
	C148.655701,114.803452 144.294113,114.850555 139.473419,114.829170 
	C136.549149,111.516823 133.113327,109.626488 129.700790,107.536171 
	C126.238724,105.415512 121.488556,104.116600 121.496246,98.368698 
	C121.857910,97.885040 122.063309,97.742043 122.635223,97.680351 
	C125.370674,97.786789 127.739616,97.811928 130.550385,97.792892 
	C137.068359,97.268440 143.151367,97.564720 149.622650,97.868240 
z"/>
<path fill="#7C8FA2" opacity="1.000000" stroke="none" 
	d="
M112.482330,114.810043 
	C110.205803,110.220871 106.343864,107.942390 102.382469,105.638000 
	C99.264015,103.823959 94.986870,103.286835 94.011864,98.436768 
	C98.367683,98.022522 102.726631,97.973396 107.545189,98.001038 
	C114.470085,104.399330 121.436302,109.901077 130.561630,111.874725 
	C131.871750,112.158089 133.261612,112.353828 133.194550,114.449677 
	C126.319427,114.805443 119.632362,114.841621 112.482330,114.810043 
z"/>
<path fill="#ABB8C7" opacity="1.000000" stroke="none" 
	d="
M57.521675,114.873901 
	C56.844673,113.136642 55.507271,112.704010 54.249203,111.842964 
	C48.099770,107.634155 41.480408,104.055855 36.073631,98.444855 
	C40.707100,98.040161 45.369354,97.694511 50.394669,98.539963 
	C56.395466,102.595428 61.429306,107.429352 67.860245,110.278595 
	C69.348190,110.937836 70.553024,112.228470 70.228256,114.477081 
	C66.008202,114.827057 61.993393,114.870018 57.521675,114.873901 
z"/>
<path fill="#748AA1" opacity="1.000000" stroke="none" 
	d="
M133.431854,114.837296 
	C132.767731,113.293816 131.740646,112.954865 130.452957,113.011734 
	C125.436661,113.233269 121.688477,110.467079 118.115189,107.540733 
	C116.005829,105.813271 113.400322,105.076012 111.262733,103.522133 
	C109.677841,102.370041 107.970497,101.146790 108.009117,98.440979 
	C108.444740,98.006187 108.884689,97.934563 109.656670,97.818405 
	C113.746239,97.248146 117.517242,97.568230 121.649361,97.892647 
	C122.742699,103.677567 127.761276,104.726463 131.397812,107.134079 
	C134.311981,109.063438 138.251175,109.772530 139.005188,114.408157 
	C137.295288,114.808884 135.576248,114.857094 133.431854,114.837296 
z"/>
<path fill="#C0DCE2" opacity="1.000000" stroke="none" 
	d="
M412.718262,97.719276 
	C354.323273,98.028374 295.633087,98.039284 236.478302,98.106911 
	C229.912750,100.509567 223.640671,99.223885 216.983276,98.848999 
	C216.312637,98.442055 216.079208,98.225922 215.933517,97.540726 
	C280.343811,97.047607 344.666351,97.021347 408.988922,97.017075 
	C410.133636,97.016998 411.278381,97.280548 412.718262,97.719276 
z"/>
<path fill="#8FA0B4" opacity="1.000000" stroke="none" 
	d="
M77.561127,97.999252 
	C77.946320,99.843559 78.268974,101.294235 80.284721,101.961746 
	C85.334213,103.633919 89.088661,107.815834 94.332893,109.213104 
	C96.588753,109.814163 97.832695,111.624527 98.010262,114.394058 
	C94.987823,114.795502 91.951744,114.840858 88.466385,114.821304 
	C83.685547,111.714317 79.584816,108.424873 74.655708,106.169144 
	C71.842339,104.881638 67.908089,103.362556 68.777679,98.449448 
	C71.715942,98.090271 74.415375,98.010567 77.561127,97.999252 
z"/>
<path fill="#99A7B8" opacity="1.000000" stroke="none" 
	d="
M68.561020,98.105835 
	C69.591476,103.318077 73.890465,104.670609 77.663216,106.281075 
	C81.800133,108.046997 85.188049,110.588493 87.964539,114.430069 
	C84.322495,114.797752 80.627892,114.839096 76.478287,114.816093 
	C72.344627,109.719307 66.832497,107.005180 61.888988,103.571747 
	C60.063972,102.304207 57.590504,101.612106 57.796612,98.448868 
	C61.381771,98.124672 64.743645,98.083183 68.561020,98.105835 
z"/>
<path fill="#DE843E" opacity="1.000000" stroke="none" 
	d="
M377.585907,27.368475 
	C378.282166,29.958050 376.623474,29.974850 374.832489,30.145927 
	C372.574860,30.361580 371.097443,31.698195 371.138794,34.060818 
	C371.187592,36.845703 373.272797,37.014740 375.400940,37.006386 
	C381.894501,36.980885 388.388794,36.921356 394.881256,37.002216 
	C396.381531,37.020905 398.157928,36.299553 399.646667,38.174370 
	C397.977203,39.521027 396.106903,39.126411 394.454285,39.025036 
	C387.783905,38.615829 381.202148,39.713882 374.575470,39.991905 
	C372.689606,40.071022 371.260345,40.670486 371.162201,42.783112 
	C371.050598,45.186420 372.550293,45.945015 374.679504,45.945034 
	C381.006592,45.945095 387.334198,45.910686 393.660461,45.985474 
	C395.232727,46.004059 396.962494,45.395737 398.371857,46.670700 
	C398.310120,48.293278 397.065979,47.989075 396.187225,47.994026 
	C388.694855,48.036285 381.200806,47.940773 373.710358,48.069374 
	C370.925507,48.117188 369.752899,47.143082 369.915771,44.316330 
	C370.068756,41.660950 370.234589,38.953545 369.894318,36.334042 
	C369.280762,31.610664 370.375336,28.415970 375.929932,27.831425 
	C376.488800,27.440546 376.888336,27.366226 377.585907,27.368475 
z"/>
<path fill="#DA8749" opacity="1.000000" stroke="none" 
	d="
M291.426514,49.762745 
	C290.778046,48.333290 290.008179,48.211407 288.852631,48.575153 
	C287.185883,49.099827 286.075592,48.189686 286.163696,46.671341 
	C286.337036,43.683750 288.468536,46.406715 289.747192,45.535229 
	C292.828827,42.344662 296.437042,43.874744 300.140930,43.728661 
	C303.005829,44.320065 305.474152,45.399670 308.250061,43.704540 
	C308.680939,43.392273 308.840668,43.255486 309.247925,42.932968 
	C310.148621,42.321358 310.894318,42.048748 311.661163,41.309990 
	C312.027191,40.757515 312.237457,40.439835 312.651428,39.914879 
	C313.215485,39.433479 313.735962,39.526840 314.072937,39.255074 
	C314.589661,38.838367 314.223785,38.386715 314.236572,39.053261 
	C314.249359,39.719807 313.120300,39.081291 313.636688,38.824989 
	C313.410370,38.165195 313.454407,37.772285 313.833984,37.192215 
	C315.195038,36.017326 313.394928,34.779537 314.364014,33.794994 
	C318.879303,38.222794 317.742218,44.106575 311.719086,47.112534 
	C310.271851,47.834805 308.692383,48.292057 307.047852,49.167381 
	C301.911774,49.587326 296.901550,49.711071 291.426514,49.762745 
z"/>
<path fill="#9FAEBF" opacity="1.000000" stroke="none" 
	d="
M57.605736,98.105873 
	C61.525295,103.534424 67.787491,105.292358 72.488991,109.112808 
	C74.229385,110.527054 75.838387,111.668709 76.009369,114.399529 
	C74.306984,114.802261 72.590691,114.852783 70.448700,114.843704 
	C69.573624,111.794304 67.035126,110.992355 64.821106,109.940315 
	C59.445206,107.385834 54.711849,104.021484 50.872719,98.968109 
	C52.854221,97.549667 55.052536,98.155846 57.605736,98.105873 
z"/>
<path fill="#696969" opacity="1.000000" stroke="none" 
	d="
M90.315659,80.412346 
	C93.259216,80.560188 95.755821,80.632210 98.250320,80.749374 
	C99.243507,80.796028 100.437378,80.849213 100.374153,82.217392 
	C100.330124,83.170158 99.347771,83.510109 98.518723,83.473137 
	C94.702644,83.302994 90.873520,83.197090 87.083145,82.767517 
	C84.940208,82.524666 83.407303,81.059364 83.193672,78.796471 
	C82.955917,76.278038 84.517715,74.494537 86.647568,73.856056 
	C91.280777,72.467110 95.964630,73.017883 101.192871,73.923241 
	C99.020370,76.757133 96.690895,75.567703 94.715652,75.800621 
	C93.235954,75.975113 91.691612,75.674820 90.230927,75.916946 
	C88.725685,76.166458 86.383942,75.758080 86.204369,77.867737 
	C86.015320,80.088882 88.358757,79.901382 90.315659,80.412346 
z"/>
<path fill="#5A7586" opacity="1.000000" stroke="none" 
	d="
M410.674683,113.613663 
	C410.993011,113.920143 411.006378,114.346581 411.007965,114.559883 
	C403.212677,114.848900 395.415863,114.986351 387.618958,114.989639 
	C354.069580,115.003777 320.520233,114.978508 286.507935,114.912369 
	C285.834290,113.407761 286.718170,112.817192 288.344116,112.462006 
	C294.467072,112.638351 300.163300,112.493034 306.286804,112.557579 
	C308.148224,112.572632 309.581207,112.528481 311.447205,112.573036 
	C312.750061,112.597977 313.620300,112.600967 314.930359,112.586746 
	C318.925446,112.447258 322.481567,112.549232 326.491486,112.541847 
	C327.867767,112.533180 328.789825,112.461288 330.184387,112.538376 
	C352.194122,112.478386 373.731445,112.384583 395.732239,112.529503 
	C399.479187,112.457565 402.762665,112.550659 406.489258,112.540878 
	C407.227295,112.557518 407.522156,112.573586 408.256104,112.649452 
	C409.278442,112.826584 409.832153,113.025902 410.674683,113.613663 
z"/>
<path fill="#DE9B6B" opacity="1.000000" stroke="none" 
	d="
M154.892105,42.707275 
	C162.706360,44.102402 164.225098,42.860859 164.428101,35.441811 
	C164.473251,33.791855 164.612045,32.139030 164.812775,30.500397 
	C164.989960,29.053963 164.964325,27.224867 167.105881,27.340223 
	C169.120209,27.448725 169.084198,29.330076 169.353210,30.712793 
	C169.570175,31.828045 169.587570,33.046371 169.392288,34.166454 
	C168.546234,39.019474 170.371964,42.204243 175.403992,43.803635 
	C175.953598,43.797989 176.176498,43.701981 176.746185,43.717155 
	C177.478836,45.023556 176.658234,45.589733 175.548401,46.331291 
	C173.161346,47.139111 171.681641,45.643291 169.649323,44.894444 
	C169.161163,44.602715 168.978973,44.468079 168.585815,44.073544 
	C167.816406,43.157894 167.628143,41.144733 166.084259,43.513191 
	C159.786957,47.675671 157.632950,47.670322 153.844177,43.354546 
	C154.085419,42.830105 154.307953,42.695446 154.892105,42.707275 
z"/>
<path fill="#F2F2F2" opacity="1.000000" stroke="none" 
	d="
M278.075287,68.128632 
	C282.892120,67.923950 287.262817,67.898384 292.064026,67.911774 
	C294.240173,69.330490 296.820160,69.153847 298.369019,71.485748 
	C298.201538,73.477951 297.010681,74.132347 295.700562,74.292473 
	C289.737823,75.021263 283.780212,76.323578 277.343170,74.585632 
	C275.413879,72.127502 275.794800,70.134422 278.075287,68.128632 
z"/>
<path fill="#537389" opacity="1.000000" stroke="none" 
	d="
M283.916107,114.431808 
	C256.963196,114.875870 229.970932,114.890091 202.515320,114.859863 
	C202.020660,114.504845 201.989334,114.194267 202.319855,113.585800 
	C209.395630,111.604790 216.213776,112.814621 223.433411,112.551895 
	C228.338776,112.363174 232.791122,112.510254 237.651047,112.511093 
	C242.867233,112.689590 247.678574,112.703102 252.484894,112.592201 
	C254.138947,112.554039 256.303772,113.337135 257.075989,110.436996 
	C257.108002,109.556679 257.195892,109.058609 257.541199,108.228058 
	C258.371399,107.344055 259.123871,107.163361 260.329041,107.253769 
	C261.725464,107.679665 262.468811,108.379524 263.339966,109.478050 
	C264.384247,112.347733 266.289795,113.016876 269.110107,112.678314 
	C270.215302,112.635681 270.963104,112.644257 272.109802,112.623459 
	C275.562500,112.578232 278.618195,112.444061 282.079529,112.905228 
	C283.042267,113.220245 283.502533,113.551178 283.916107,114.431808 
z"/>
<path fill="#E2AC83" opacity="1.000000" stroke="none" 
	d="
M107.587448,32.042542 
	C106.263260,28.430420 107.489410,27.110586 111.368858,26.874254 
	C119.616745,26.371798 127.860611,26.240978 136.112732,26.163652 
	C138.306519,26.143097 140.775879,25.977604 140.704330,29.155058 
	C140.640732,31.979168 138.301285,31.895218 136.318039,31.917046 
	C132.187775,31.962503 128.056427,31.911709 123.473885,31.779793 
	C125.853760,28.250725 129.766602,30.261368 133.337311,29.641361 
	C125.940437,29.533701 118.362778,29.528324 110.494568,30.386135 
	C109.405853,30.995079 108.772568,31.676888 107.587448,32.042542 
z"/>
<path fill="#DA8440" opacity="1.000000" stroke="none" 
	d="
M350.576721,45.287704 
	C354.789673,47.955521 355.875336,47.084938 357.508514,40.083855 
	C358.815002,48.048580 358.804382,48.306618 350.992462,47.985455 
	C344.337494,47.711861 337.410492,49.714489 331.083801,45.917633 
	C326.539734,43.190586 326.609253,35.589016 331.824860,32.138363 
	C330.896362,35.423481 327.832184,37.999550 330.773346,41.359909 
	C333.932190,44.968987 337.890747,45.906960 342.296448,45.998005 
	C344.277496,46.038940 346.262482,45.886345 348.553497,45.581253 
	C349.320648,45.295174 349.779968,45.249413 350.576721,45.287704 
z"/>
<path fill="#D98545" opacity="1.000000" stroke="none" 
	d="
M107.213806,32.452881 
	C107.656708,31.417164 108.066269,30.791946 108.702103,29.991779 
	C109.578110,30.152403 109.891319,30.721142 110.072800,31.743093 
	C110.109200,33.405937 110.104729,34.735168 110.131172,36.462082 
	C110.282234,38.070679 110.238304,39.278408 110.110138,40.785564 
	C109.520432,44.896374 111.347603,46.069004 114.937119,45.969883 
	C121.233376,45.796028 127.537674,45.882851 133.838272,45.919182 
	C135.388092,45.928120 137.073410,45.505516 138.517883,46.647701 
	C137.846680,48.680305 136.291595,48.051590 135.146179,48.060257 
	C128.182587,48.112980 121.199486,47.750233 114.260338,48.160072 
	C109.054054,48.467571 107.309921,46.493584 107.964928,41.587330 
	C108.136429,40.302666 107.845482,38.956264 107.537842,37.312149 
	C107.265991,35.611847 107.223221,34.237610 107.213806,32.452881 
z"/>
<path fill="#565656" opacity="1.000000" stroke="none" 
	d="
M55.337860,69.931633 
	C52.111614,68.852547 49.095753,69.716530 46.150726,69.445930 
	C45.173168,69.356110 43.979626,69.492714 43.830532,68.178604 
	C43.671940,66.780800 44.818932,66.682358 45.837601,66.659027 
	C52.799400,66.499573 59.761387,66.347282 66.723686,66.212021 
	C67.749893,66.192078 68.934868,66.357552 68.995941,67.584572 
	C69.062378,68.919189 67.801277,68.942123 66.822342,68.999817 
	C64.009781,69.165604 61.194809,69.290535 57.954548,69.472336 
	C56.804985,69.074181 56.260605,69.578682 55.337860,69.931633 
z"/>
<path fill="#676767" opacity="1.000000" stroke="none" 
	d="
M156.274475,74.489304 
	C158.210785,78.686058 156.616196,81.115448 152.905365,82.417603 
	C150.577606,83.234428 148.759216,82.148491 147.275253,80.385002 
	C145.841354,78.681023 145.589325,76.744049 146.757126,74.910141 
	C148.085602,72.823898 150.171783,71.782433 152.647659,72.376396 
	C153.862457,72.667816 154.928986,73.577286 156.274475,74.489304 
z"/>
<path fill="#636363" opacity="1.000000" stroke="none" 
	d="
M139.201904,77.275238 
	C135.910263,74.436874 132.741714,75.815346 129.503754,76.050980 
	C124.722717,76.398903 126.848587,81.057594 124.741119,83.076828 
	C121.833214,77.197998 123.168053,74.234085 129.265320,73.169182 
	C133.664581,72.400856 138.001266,72.451675 141.352173,76.628250 
	C140.907028,77.374962 140.309433,77.545204 139.201904,77.275238 
z"/>
<path fill="#D98545" opacity="1.000000" stroke="none" 
	d="
M175.040604,46.263031 
	C175.519409,45.456646 176.119797,44.972778 176.925964,44.073601 
	C177.325928,43.545410 177.520111,43.432533 178.042099,43.241879 
	C181.920944,41.809841 183.376694,39.305275 183.066727,35.469067 
	C182.883148,33.197109 182.629837,30.829645 183.673187,28.231569 
	C183.884705,27.888186 183.982788,27.905615 183.941711,27.877417 
	C185.421509,27.356602 185.748657,28.554405 186.397095,29.800602 
	C186.589157,33.535213 186.632828,36.976555 186.522110,40.799683 
	C185.982941,41.190529 185.787003,41.395973 185.992737,41.858887 
	C186.165115,43.705284 184.951309,44.741978 183.504150,45.978798 
	C182.597153,46.469696 182.070023,46.927010 181.195648,47.489372 
	C180.303665,47.893158 179.704254,48.110851 178.785126,48.354282 
	C178.247238,48.452393 178.029037,48.524765 177.469559,48.540840 
	C176.275589,48.055843 175.686752,47.353962 175.040604,46.263031 
z"/>
<path fill="#DAA37A" opacity="1.000000" stroke="none" 
	d="
M155.110199,42.517235 
	C155.044128,42.886875 154.834518,42.919994 154.307648,42.979057 
	C151.449814,44.377171 151.166428,42.193039 150.745422,40.747562 
	C150.240524,39.014072 150.464417,37.165550 150.580536,35.702095 
	C149.754990,39.135231 151.121353,42.450562 152.727707,46.076927 
	C152.652649,46.667408 152.582703,46.897800 152.281708,47.405769 
	C145.793106,42.876080 148.737122,35.777382 147.667313,29.694023 
	C147.473160,28.590071 148.676773,27.401110 149.993729,27.633574 
	C152.314560,28.043238 152.612854,30.131563 152.427521,31.899075 
	C152.029846,35.691635 152.519958,39.146343 155.110199,42.517235 
z"/>
<path fill="#767676" opacity="1.000000" stroke="none" 
	d="
M276.764160,74.283813 
	C282.616821,73.823441 288.245697,73.713676 293.862457,73.392242 
	C295.351929,73.307007 297.306671,73.903229 298.090576,71.409302 
	C298.299744,70.401497 298.778229,70.046669 299.672241,69.751320 
	C302.441620,70.202675 300.873352,72.149605 301.136627,73.703796 
	C293.454987,76.728920 285.570618,76.278870 277.290161,76.531143 
	C276.358673,75.942627 276.293762,75.270775 276.764160,74.283813 
z"/>
<path fill="#D98545" opacity="1.000000" stroke="none" 
	d="
M96.797363,31.681824 
	C94.928833,33.881550 97.124023,36.686108 94.308167,39.266819 
	C94.455284,30.348372 93.130875,22.589691 84.135620,17.913591 
	C89.611938,17.464777 90.222290,17.997551 96.091232,26.964891 
	C96.530365,28.478384 96.693306,29.869629 96.797363,31.681824 
z"/>
<path fill="#5C5C5C" opacity="1.000000" stroke="none" 
	d="
M405.139160,75.258186 
	C408.565796,78.776344 408.021851,82.036362 403.726288,82.599152 
	C399.216339,83.190025 394.336884,85.302567 390.032959,81.382599 
	C390.668457,80.470978 391.320862,80.083527 392.453735,79.832909 
	C396.692841,79.317825 401.152222,80.843788 404.052612,76.164391 
	C404.425995,75.675308 404.599030,75.497452 405.139160,75.258186 
z"/>
<path fill="#CDE2E8" opacity="1.000000" stroke="none" 
	d="
M215.551300,97.041931 
	C216.021255,97.071678 216.000717,97.449661 215.992584,97.638763 
	C214.528702,99.661545 212.431946,99.376534 210.490891,99.385376 
	C197.924973,99.442612 185.358459,99.370171 172.792999,99.451546 
	C170.425629,99.466881 168.298538,98.382423 165.493027,98.318031 
	C162.961700,98.096931 160.907501,98.010559 158.424561,97.820984 
	C159.461227,96.563484 161.186584,97.021156 162.802399,97.018646 
	C180.228668,96.991554 197.655014,97.007797 215.551300,97.041931 
z"/>
<path fill="#515151" opacity="1.000000" stroke="none" 
	d="
M220.769318,82.479462 
	C218.385208,74.466652 219.061707,73.422508 226.845245,73.480125 
	C229.934128,73.502991 233.019562,73.990982 236.305786,74.654671 
	C233.076614,77.607353 228.942780,75.366776 225.165955,76.916817 
	C224.884674,77.517204 224.796799,77.889954 224.675293,78.555992 
	C224.446198,79.413277 224.183807,79.941841 223.720734,80.702240 
	C223.162903,81.409477 222.672226,81.743477 221.897110,82.185585 
	C221.444473,82.371201 221.254242,82.420746 220.769318,82.479462 
z"/>
<path fill="#5C5C5C" opacity="1.000000" stroke="none" 
	d="
M182.783905,73.451836 
	C185.215561,74.118111 188.037582,74.567329 187.542038,77.937515 
	C187.123642,80.782845 185.074860,82.423347 182.410873,82.505997 
	C179.289307,82.602829 177.044998,81.021210 176.913467,77.270630 
	C177.368790,76.675606 177.772446,76.477119 178.590286,76.500961 
	C182.402222,78.692261 182.538391,78.661308 182.580750,75.386574 
	C182.399231,74.606812 182.431992,74.156624 182.783905,73.451836 
z"/>
<path fill="#4C4C4C" opacity="1.000000" stroke="none" 
	d="
M301.005157,73.987953 
	C303.833771,72.742500 304.895538,75.339531 306.182159,76.708382 
	C308.712250,79.400177 310.688782,79.437988 313.062622,76.613136 
	C314.221375,75.234222 315.218079,73.054184 317.994080,74.090691 
	C315.903198,76.674118 313.864410,79.153076 311.871521,81.668419 
	C310.325684,83.619553 308.979126,82.587463 307.743011,81.378624 
	C305.498871,79.183990 303.334839,76.907410 301.067230,74.333206 
	C300.997070,74.001389 301.002441,73.997627 301.005157,73.987953 
z"/>
<path fill="#E1A276" opacity="1.000000" stroke="none" 
	d="
M152.223022,48.039772 
	C152.050659,47.683353 152.083618,47.228992 152.112030,47.002995 
	C154.088272,45.664890 155.968048,46.986347 157.875183,46.927582 
	C160.732681,46.839527 163.320007,45.920506 165.786072,43.738792 
	C166.872589,43.183155 167.620865,43.209137 168.684296,43.778030 
	C168.995865,44.018105 169.002029,43.999207 168.992523,44.001671 
	C170.307251,44.913609 171.687714,45.764854 172.473236,47.645813 
	C172.507095,48.213860 172.469467,48.442192 172.220093,48.945595 
	C168.682312,47.494995 165.789719,46.993076 162.056259,49.290970 
	C159.432068,50.906109 155.425217,50.842606 152.223022,48.039772 
z"/>
<path fill="#515151" opacity="1.000000" stroke="none" 
	d="
M256.189514,80.773529 
	C251.671799,84.861107 246.446548,83.073616 241.627533,82.993591 
	C239.916321,82.965179 240.191406,81.228043 242.374664,80.676949 
	C245.396683,79.022209 248.528259,80.159554 251.651062,79.107689 
	C252.178116,78.813889 252.391434,78.700752 252.953094,78.491005 
	C253.786911,78.376503 254.248306,78.469666 254.807892,79.026932 
	C254.934494,79.360100 255.297302,79.661362 255.507874,79.767456 
	C256.155121,79.913071 256.377991,80.161125 256.189514,80.773529 
z"/>
<path fill="#515151" opacity="1.000000" stroke="none" 
	d="
M393.430115,80.618935 
	C392.433899,80.951614 391.652649,80.985558 390.480591,81.006134 
	C390.053955,79.674606 390.121735,78.343643 389.960663,77.040970 
	C389.629547,74.362946 390.478699,72.973251 393.423645,73.209663 
	C397.160645,73.509659 401.026428,72.500305 404.831421,74.676880 
	C404.858490,75.152603 404.658234,75.312027 404.135315,75.676613 
	C402.380768,76.368889 400.874359,76.452972 399.414337,76.317474 
	C396.298401,76.028282 394.372559,77.261772 393.430115,80.618935 
z"/>
<path fill="#676767" opacity="1.000000" stroke="none" 
	d="
M369.670044,80.187637 
	C370.789398,79.884254 371.538452,79.848907 372.649109,79.921402 
	C373.146240,80.154106 373.281799,80.278969 373.675720,80.305412 
	C375.842194,82.345924 373.541931,82.217415 372.659363,82.192535 
	C366.491821,82.018661 360.295258,82.917252 354.029419,81.385849 
	C358.995087,79.733002 364.179443,80.960243 369.670044,80.187637 
z"/>
<path fill="#636363" opacity="1.000000" stroke="none" 
	d="
M200.717026,81.215530 
	C202.840256,80.318878 205.960419,82.222809 206.222061,78.328850 
	C206.264740,77.693634 207.025192,77.261017 207.726990,77.701614 
	C208.891510,78.432701 208.652557,79.703743 208.721008,80.811829 
	C208.812195,82.288025 208.374268,83.459938 206.606415,83.430824 
	C203.658783,83.382286 200.712067,83.278267 197.413635,83.022324 
	C197.294128,80.244759 199.411774,82.159157 200.717026,81.215530 
z"/>
<path fill="#565656" opacity="1.000000" stroke="none" 
	d="
M79.399780,77.920471 
	C79.363228,78.967018 79.123230,79.702576 78.886841,80.734772 
	C78.696556,81.138092 78.502678,81.244781 77.985474,81.282860 
	C76.351044,80.356216 74.890198,80.149750 73.038979,80.238251 
	C70.571243,80.393814 68.353416,79.815102 66.057014,81.136551 
	C65.451859,81.645210 65.081619,81.908607 64.377953,82.292999 
	C63.827782,82.447433 63.595566,82.459335 63.063339,82.293335 
	C61.803482,79.995827 62.547710,77.794876 62.600967,75.280106 
	C62.977978,74.828354 63.207981,74.730438 63.800903,74.722839 
	C66.674072,76.567024 69.535431,75.399666 72.211716,75.776657 
	C74.613701,76.115021 77.046837,76.316475 79.399780,77.920471 
z"/>
<path fill="#787878" opacity="1.000000" stroke="none" 
	d="
M163.008072,79.589279 
	C166.529053,80.547600 169.840775,79.824684 173.079010,80.204468 
	C173.944077,80.305939 174.807358,80.601570 174.753998,81.557465 
	C174.729675,81.993111 173.884689,82.774223 173.472824,82.736359 
	C169.401291,82.362053 165.126602,84.436653 161.270782,81.371964 
	C161.698761,80.458488 162.076385,79.923004 163.008072,79.589279 
z"/>
<path fill="#A2A2A2" opacity="1.000000" stroke="none" 
	d="
M79.739655,77.910858 
	C75.180893,77.840057 70.841858,76.399223 66.319443,77.233788 
	C65.091034,77.460457 64.491562,76.739929 64.219482,75.265717 
	C63.946659,74.761559 63.813244,74.561874 63.927452,74.100555 
	C64.525864,73.750252 64.876656,73.661575 65.462494,73.722084 
	C69.867004,75.241051 74.174187,74.120918 78.801422,74.788521 
	C79.431015,75.865707 79.653542,76.727982 79.739655,77.910858 
z"/>
<path fill="#676767" opacity="1.000000" stroke="none" 
	d="
M354.026917,78.239944 
	C352.987823,73.919891 352.891602,69.830627 354.207489,65.758972 
	C356.297058,69.438072 355.363922,73.397011 355.435913,77.651306 
	C354.973694,78.361458 354.631775,78.481422 354.026917,78.239944 
z"/>
<path fill="#3F3F3F" opacity="1.000000" stroke="none" 
	d="
M276.819946,73.595886 
	C276.938354,74.648155 276.884216,75.283844 276.825684,76.238670 
	C276.437225,78.060097 277.099548,79.834145 274.510590,82.211388 
	C274.510590,77.169739 274.326477,73.160843 274.594055,69.182335 
	C274.714355,67.393425 276.623138,68.072556 278.179810,67.950714 
	C279.181549,70.153160 275.073486,70.648224 276.819946,73.595886 
z"/>
<path fill="#789CAE" opacity="1.000000" stroke="none" 
	d="
M284.301025,114.934448 
	C283.881775,114.562805 283.716797,114.328156 283.260010,114.068993 
	C282.180878,113.101990 282.575165,112.378738 283.641602,111.587006 
	C285.736786,111.194473 284.815887,110.163628 284.419250,108.988358 
	C284.064789,107.899506 283.905426,107.116920 283.681580,106.351089 
	C283.316711,105.102989 282.924530,103.756760 284.148132,102.821594 
	C285.549866,101.750290 286.849121,102.443726 288.265442,103.674225 
	C290.339111,105.593048 289.216187,107.723930 289.433228,109.989838 
	C289.484375,110.548851 289.493652,110.774391 289.447144,111.335480 
	C289.205444,112.091522 288.938599,112.452202 288.268982,112.863358 
	C287.387878,113.433342 286.828949,113.893257 286.157501,114.605164 
	C285.578857,114.907181 285.112701,114.957222 284.301025,114.934448 
z"/>
<path fill="#303030" opacity="1.000000" stroke="none" 
	d="
M253.836456,78.813004 
	C253.556610,79.009315 253.305237,78.923981 253.174759,78.948334 
	C250.066116,80.666206 246.958481,80.094521 243.477676,79.202698 
	C240.494522,75.717964 242.809021,74.939545 245.721191,74.287910 
	C249.881653,73.897102 253.688019,73.698402 257.871155,74.652473 
	C258.319885,75.087059 258.379547,75.311638 258.256958,75.833344 
	C255.287491,77.322807 252.346451,76.998619 249.492676,76.981323 
	C251.089325,77.278069 253.154327,76.345879 253.836456,78.813004 
z"/>
<path fill="#DF9D6E" opacity="1.000000" stroke="none" 
	d="
M183.513733,27.998257 
	C183.922516,31.130102 184.134293,34.382126 183.946732,37.610950 
	C183.776199,40.546577 182.712662,43.050114 178.735840,43.150391 
	C181.600281,41.073742 182.729218,38.140514 182.411591,34.318134 
	C182.242249,32.280388 181.570145,30.011110 183.513733,27.998257 
z"/>
<path fill="#1C1C1C" opacity="1.000000" stroke="none" 
	d="
M331.642883,75.685173 
	C331.412689,76.612411 331.406494,77.302231 331.362305,78.334778 
	C331.110535,79.584061 330.469238,79.505226 329.632172,79.048920 
	C330.883148,73.005638 324.197296,76.688881 323.112488,72.901070 
	C328.248962,73.194618 333.091492,71.935364 338.058899,73.647194 
	C336.287842,75.732292 333.817352,74.369026 331.642883,75.685173 
z"/>
<path fill="#515151" opacity="1.000000" stroke="none" 
	d="
M235.197861,80.739838 
	C237.852112,83.076599 236.095169,83.184265 234.546402,83.177643 
	C230.055908,83.158447 225.565857,83.041283 220.775116,82.725601 
	C220.474594,82.488632 220.835693,82.157127 221.023285,81.999390 
	C225.477951,80.131340 229.956985,80.748283 235.197861,80.739838 
z"/>
<path fill="#696969" opacity="1.000000" stroke="none" 
	d="
M62.934860,82.460327 
	C62.968719,82.090118 63.174110,82.064804 63.689301,82.019989 
	C68.730042,79.836639 73.534752,80.141441 78.781944,81.845154 
	C73.920212,84.479195 68.494202,83.194305 62.934860,82.460327 
z"/>
<path fill="#787878" opacity="1.000000" stroke="none" 
	d="
M213.369263,82.613037 
	C213.114731,81.320930 212.913544,80.324966 213.029892,79.367615 
	C213.274063,77.358719 212.136749,75.088959 213.895874,73.391922 
	C214.421738,72.884628 215.028107,73.587883 215.330841,74.219269 
	C216.505142,76.668274 215.499313,81.656525 213.369263,82.613037 
z"/>
<path fill="#9D9D9D" opacity="1.000000" stroke="none" 
	d="
M224.315155,77.524124 
	C221.259995,76.406837 222.442612,75.500504 224.126877,75.378738 
	C227.908493,75.105347 231.716888,75.202187 236.009705,75.095215 
	C236.620361,75.551300 236.735687,76.060478 236.827682,76.842148 
	C232.909012,80.159935 228.750977,78.068924 224.315155,77.524124 
z"/>
<path fill="#D48A55" opacity="1.000000" stroke="none" 
	d="
M136.790176,29.792559 
	C132.780289,32.019634 128.116364,30.208260 123.348389,31.427420 
	C120.975403,31.730412 118.928581,31.801706 116.446228,31.815830 
	C115.224060,31.496719 114.437416,31.234776 113.324615,30.949549 
	C113.133652,28.774063 115.040306,29.350311 115.992035,29.408924 
	C122.809227,29.828779 129.626831,28.246799 136.790176,29.792559 
z"/>
<path fill="#1C1C1C" opacity="1.000000" stroke="none" 
	d="
M55.004585,70.448120 
	C55.501724,69.182724 55.526394,67.394310 57.353848,69.222641 
	C57.503204,72.648193 57.478096,75.783234 57.414635,79.322693 
	C57.081184,80.554420 56.454063,80.542404 55.579750,80.084122 
	C55.267864,76.834213 55.138046,73.865944 55.004585,70.448120 
z"/>
<path fill="#282828" opacity="1.000000" stroke="none" 
	d="
M195.744659,74.161407 
	C199.334854,72.772888 202.774017,73.737350 206.599213,73.691025 
	C207.303818,74.123123 207.405975,74.574074 207.018204,75.279755 
	C203.472214,75.529106 200.221985,75.567734 196.523651,75.603439 
	C195.705292,75.301102 195.539474,74.909172 195.744659,74.161407 
z"/>
<path fill="#1C1C1C" opacity="1.000000" stroke="none" 
	d="
M371.869202,73.291046 
	C376.716980,73.173988 381.482727,71.888596 386.216736,73.749115 
	C384.324219,75.590858 381.931702,74.437981 379.744446,75.691032 
	C379.542358,76.963890 379.547180,77.986519 379.517151,79.390984 
	C379.206635,80.559982 378.624908,80.495453 377.865540,80.024223 
	C377.674042,78.720016 377.615356,77.697701 377.564209,76.290176 
	C376.095581,73.970833 373.007385,76.111717 371.869202,73.291046 
z"/>
<path fill="#515151" opacity="1.000000" stroke="none" 
	d="
M107.768410,77.218277 
	C110.309372,76.967728 114.391708,75.711967 114.259972,77.977501 
	C114.106041,80.624603 109.801849,78.635948 107.070084,79.635834 
	C106.235962,80.729156 105.832596,81.728592 104.403610,82.005173 
	C103.606964,79.412018 103.631615,76.939049 104.449005,74.343475 
	C105.871811,74.655830 106.118874,75.694405 106.798340,76.778114 
	C106.976921,77.018738 106.999390,77.000305 106.990601,77.011581 
	C107.154770,77.144951 107.327744,77.267052 107.768410,77.218277 
z"/>
<path fill="#3F3F3F" opacity="1.000000" stroke="none" 
	d="
M118.377243,73.975220 
	C118.498993,77.054237 118.498993,79.767609 118.498993,82.480980 
	C116.243576,80.297997 113.424820,78.411110 116.312958,74.740479 
	C116.708733,73.261848 117.530342,73.574219 118.377243,73.975220 
z"/>
<path fill="#A2A2A2" opacity="1.000000" stroke="none" 
	d="
M253.788528,79.063049 
	C251.299683,76.574043 247.888260,79.145149 245.139221,76.830650 
	C249.241653,75.189438 253.260086,76.221069 257.611847,76.053833 
	C257.368927,77.179359 255.664429,77.222832 255.185059,79.056030 
	C254.615540,79.332649 254.310852,79.251549 253.788528,79.063049 
z"/>
<path fill="#9D9D9D" opacity="1.000000" stroke="none" 
	d="
M223.390320,81.224915 
	C223.107132,80.387993 223.242172,79.758308 223.666901,78.943512 
	C227.754456,77.056328 231.613327,78.599953 235.763092,78.807777 
	C236.059525,79.464676 236.034927,79.856232 236.017914,80.542206 
	C236.025467,80.836624 236.041977,81.089264 235.982620,81.201080 
	C231.888092,81.664642 227.847351,81.449074 223.390320,81.224915 
z"/>
<path fill="#CDE2E8" opacity="1.000000" stroke="none" 
	d="
M150.439728,98.093750 
	C143.978897,98.082962 137.944443,98.017120 131.451111,97.849991 
	C139.075974,96.239342 147.208435,97.132156 155.661301,97.488342 
	C154.286896,97.827187 152.576492,97.932938 150.439728,98.093750 
z"/>
<path fill="#5C5C5C" opacity="1.000000" stroke="none" 
	d="
M236.344757,78.922134 
	C232.323578,79.025032 228.563034,78.976952 224.379547,78.843643 
	C223.969620,78.437027 223.973007,78.115547 223.957138,77.553818 
	C227.975708,76.161804 232.040756,78.156235 236.437622,77.143082 
	C236.738022,77.666817 236.671692,78.218979 236.344757,78.922134 
z"/>
<path fill="#5C5C5C" opacity="1.000000" stroke="none" 
	d="
M258.126556,74.497757 
	C254.407394,74.842102 250.554611,74.821716 246.387268,74.547775 
	C250.030319,73.072449 254.009827,73.469795 258.126556,74.497757 
z"/>
<path fill="#7C8FA2" opacity="1.000000" stroke="none" 
	d="
M201.640869,113.686172 
	C201.983505,114.004807 202.014725,114.410378 202.033356,114.612892 
	C195.342407,114.871002 188.632858,114.926590 181.461426,114.897194 
	C181.914368,113.800537 183.141312,114.066063 184.645004,113.999176 
	C187.714935,111.843811 190.915466,112.653870 194.423950,112.531647 
	C197.063766,112.514847 199.261124,112.315063 201.640869,113.686172 
z"/>
<path fill="#4C4C4C" opacity="1.000000" stroke="none" 
	d="
M353.713531,78.408020 
	C354.138977,78.080215 354.458527,78.102577 355.019043,78.093231 
	C359.631744,80.767975 364.513885,79.091789 369.585114,79.808479 
	C365.120178,82.222519 359.902740,80.522995 354.377258,81.036514 
	C353.804749,80.275574 353.705566,79.525909 353.713531,78.408020 
z"/>
<path fill="#959595" opacity="1.000000" stroke="none" 
	d="
M243.171600,79.216202 
	C246.115112,78.942520 249.124298,78.977882 252.588882,78.992966 
	C250.603088,82.984146 246.717545,80.069489 243.166840,80.805466 
	C242.887634,80.290504 243.062454,79.907875 243.171600,79.216202 
z"/>
<path fill="#787878" opacity="1.000000" stroke="none" 
	d="
M138.866394,77.469223 
	C139.355087,77.050270 139.948364,77.020401 140.988220,76.975082 
	C141.608521,77.750504 141.944885,78.546875 141.918335,79.330956 
	C141.877182,80.546364 142.475906,82.547951 140.649185,82.540031 
	C138.881897,82.532364 139.577515,80.500748 139.314880,79.308113 
	C139.208069,78.823128 139.086075,78.341484 138.866394,77.469223 
z"/>
<path fill="#727272" opacity="1.000000" stroke="none" 
	d="
M299.640137,69.398026 
	C299.783356,70.416664 299.339325,70.875381 298.287170,70.972717 
	C295.960693,70.358315 293.448669,70.927238 292.231964,68.340836 
	C294.815582,68.060196 297.154846,68.064056 299.640137,69.398026 
z"/>
<path fill="#696969" opacity="1.000000" stroke="none" 
	d="
M163.347809,79.147606 
	C162.871307,79.989845 162.410248,80.426514 161.622070,80.915039 
	C161.206848,78.133430 160.503754,75.253555 161.680176,71.429695 
	C163.859406,74.269150 163.148422,76.612350 163.347809,79.147606 
z"/>
<path fill="#636363" opacity="1.000000" stroke="none" 
	d="
M179.137665,76.988190 
	C178.393723,77.005760 178.003708,77.004692 177.321198,77.006828 
	C176.947998,73.312386 179.227570,72.726974 182.613144,73.133881 
	C183.010361,73.554085 183.010361,73.916527 183.011932,74.550789 
	C182.247284,76.207153 180.871796,76.592232 179.137665,76.988190 
z"/>
<path fill="#727272" opacity="1.000000" stroke="none" 
	d="
M371.659119,72.934082 
	C373.246674,75.503731 376.712860,72.562531 377.723083,75.626801 
	C375.705566,75.629082 373.816589,75.454475 371.981445,75.040901 
	C370.801208,74.774910 369.717834,74.152405 371.659119,72.934082 
z"/>
<path fill="#515151" opacity="1.000000" stroke="none" 
	d="
M195.571548,73.817444 
	C195.994568,74.264992 196.049011,74.644943 196.089493,75.312698 
	C195.130051,76.455925 193.404236,76.398262 193.154907,78.422394 
	C193.408264,79.385666 193.249298,79.871719 192.229111,80.163208 
	C190.016754,76.426552 192.626541,75.097130 195.571548,73.817444 
z"/>
<path fill="#303030" opacity="1.000000" stroke="none" 
	d="
M79.269913,81.804802 
	C74.438072,82.085930 69.685341,82.052498 64.465851,82.009781 
	C64.206726,81.713661 64.414345,81.426826 64.869736,81.022049 
	C67.250023,79.402748 69.687836,80.232384 72.429092,80.004425 
	C74.333443,80.071251 75.828484,79.827850 77.593117,80.717972 
	C77.955269,80.972382 78.417618,81.084984 78.654030,81.058197 
	C79.043289,81.184341 79.196144,81.337288 79.269913,81.804802 
z"/>
<path fill="#7D7D7D" opacity="1.000000" stroke="none" 
	d="
M331.841156,75.803085 
	C332.407532,72.135162 335.436676,75.049683 337.711426,74.123840 
	C336.745636,76.788231 334.070801,74.615105 331.841156,75.803085 
z"/>
<path fill="#727272" opacity="1.000000" stroke="none" 
	d="
M379.930420,75.767433 
	C380.497253,72.185486 383.523346,74.933372 385.821075,74.158005 
	C384.670197,76.453644 382.184570,74.660789 379.930420,75.767433 
z"/>
<path fill="#CDE2E8" opacity="1.000000" stroke="none" 
	d="
M122.268372,98.098969 
	C118.307983,98.117043 114.600800,98.042755 110.441162,97.871170 
	C114.055786,96.273438 118.214760,97.102310 122.675018,97.523972 
	C122.841690,97.843300 122.681633,97.924950 122.268372,98.098969 
z"/>
<path fill="#282828" opacity="1.000000" stroke="none" 
	d="
M79.097824,74.536827 
	C74.873558,74.791206 70.503624,75.819786 65.946831,74.253784 
	C70.129242,73.816246 74.572853,72.964630 79.097824,74.536827 
z"/>
<path fill="#7D7D7D" opacity="1.000000" stroke="none" 
	d="
M329.311890,79.121399 
	C329.932983,78.718468 330.393188,78.681580 331.088867,78.661087 
	C331.936005,80.199318 332.661804,82.186005 330.455750,82.524948 
	C328.838806,82.773376 329.195526,80.716225 329.311890,79.121399 
z"/>
<path fill="#515151" opacity="1.000000" stroke="none" 
	d="
M200.613159,80.889816 
	C200.210098,82.400780 198.576294,81.670502 197.281845,82.605774 
	C196.205093,82.721100 195.347870,82.595161 194.232574,82.264420 
	C193.593475,81.501518 193.468567,80.890999 193.864624,79.823593 
	C196.037827,80.421349 198.083130,80.814423 200.613159,80.889816 
z"/>
<path fill="#DF9D6E" opacity="1.000000" stroke="none" 
	d="
M172.381027,49.446022 
	C172.014923,48.962914 172.010635,48.705341 171.989807,48.252354 
	C173.240219,46.857040 174.684082,46.909275 176.578491,47.668415 
	C177.216217,47.968887 177.472900,48.025963 178.097504,48.231529 
	C178.465424,48.380020 178.222946,48.752441 178.036545,48.873371 
	C177.553391,49.301815 177.194962,49.476105 176.455475,49.518578 
	C175.014984,49.584171 173.884338,49.627773 172.381027,49.446022 
z"/>
<path fill="#A2A2A2" opacity="1.000000" stroke="none" 
	d="
M104.168015,82.173737 
	C105.007744,81.406540 104.789421,79.906609 106.354027,79.753296 
	C106.305595,81.060440 107.807800,84.032112 104.168015,82.173737 
z"/>
<path fill="#727272" opacity="1.000000" stroke="none" 
	d="
M377.569702,80.064529 
	C378.164093,79.746140 378.595490,79.749947 379.254547,79.763290 
	C380.000031,80.934395 380.258484,82.291595 378.698456,82.545761 
	C377.412598,82.755249 377.393127,81.396225 377.569702,80.064529 
z"/>
<path fill="#DF9D6E" opacity="1.000000" stroke="none" 
	d="
M186.676147,29.791000 
	C185.821716,29.472420 185.097992,28.850973 184.137451,28.039371 
	C183.961014,27.042292 184.415680,26.687933 185.177277,26.893509 
	C186.489243,27.247656 186.932968,28.202356 186.676147,29.791000 
z"/>
<path fill="#8E8E8E" opacity="1.000000" stroke="none" 
	d="
M207.007080,75.632660 
	C206.841476,75.101151 206.960526,74.711830 207.043488,74.019356 
	C207.916672,73.001785 208.544754,73.486938 208.723495,74.342575 
	C208.927490,75.319145 208.188782,75.709854 207.007080,75.632660 
z"/>
<path fill="#787878" opacity="1.000000" stroke="none" 
	d="
M55.274319,80.139908 
	C55.888462,79.801743 56.379242,79.800995 57.123154,79.763680 
	C57.875217,80.578484 57.835037,81.359726 56.827976,81.709236 
	C55.804386,82.064507 55.324856,81.416313 55.274319,80.139908 
z"/>
<path fill="#7C8FA2" opacity="1.000000" stroke="none" 
	d="
M167.991898,114.180969 
	C169.802719,114.089432 171.604828,114.207069 173.699081,114.564560 
	C172.265945,114.859421 170.540649,114.914429 168.389542,114.888908 
	C167.963715,114.808380 167.983185,114.390137 167.991898,114.180969 
z"/>
<path fill="#A2A2A2" opacity="1.000000" stroke="none" 
	d="
M106.946045,76.673523 
	C105.832413,76.735794 105.043777,76.098969 104.841515,74.549316 
	C106.293945,74.171196 106.825752,75.031441 106.946045,76.673523 
z"/>
<path fill="#636363" opacity="1.000000" stroke="none" 
	d="
M194.002472,79.261139 
	C194.087006,80.005463 194.044479,80.591812 193.988251,81.618896 
	C192.999466,82.072029 192.417786,81.477417 191.862823,80.421829 
	C192.150055,79.858650 192.505966,79.609230 193.001404,79.060013 
	C193.377502,78.892227 193.622299,79.006546 194.002472,79.261139 
z"/>
<path fill="#A2A2A2" opacity="1.000000" stroke="none" 
	d="
M256.275696,80.940979 
	C255.959030,80.706078 255.904831,80.465614 255.759277,80.055046 
	C256.335449,79.627144 256.878723,78.425804 257.565765,79.350922 
	C258.091522,80.058838 257.604980,80.815788 256.275696,80.940979 
z"/>
<path fill="#E1A276" opacity="1.000000" stroke="none" 
	d="
M181.216309,47.744530 
	C181.067108,46.735481 181.565384,46.141338 182.888992,46.104538 
	C183.015213,47.065456 182.490829,47.659256 181.216309,47.744530 
z"/>
<path fill="#A2A2A2" opacity="1.000000" stroke="none" 
	d="
M118.548279,73.988174 
	C117.965782,74.288193 117.432571,74.235519 116.623779,74.228256 
	C116.614716,72.357613 117.474861,72.533859 118.548279,73.988174 
z"/>
<path fill="#E1A276" opacity="1.000000" stroke="none" 
	d="
M176.379852,49.625195 
	C176.558670,49.360928 176.971695,49.181290 177.617432,48.997978 
	C177.438110,49.232811 177.026093,49.471317 176.379852,49.625195 
z"/>
<path fill="#4C4C4C" opacity="1.000000" stroke="none" 
	d="
M373.719238,80.079315 
	C373.674377,80.249367 373.414734,80.291756 373.082886,80.181686 
	C373.010681,80.029243 373.504395,79.951645 373.719238,80.079315 
z"/>
<path fill="#DF9D6E" opacity="1.000000" stroke="none" 
	d="
M186.322403,41.765480 
	C186.023315,41.784725 185.815521,41.622902 185.607742,41.461075 
	C185.714600,41.366039 185.821457,41.271008 186.148010,41.178726 
	C186.367706,41.181469 186.413696,41.584412 186.322403,41.765480 
z"/>
<path fill="#DF9D6E" opacity="1.000000" stroke="none" 
	d="
M176.892044,43.564316 
	C177.131744,43.658283 177.124481,43.843822 177.101105,43.933731 
	C176.853317,44.007030 176.628922,43.990414 176.067612,43.933895 
	C176.037918,43.752777 176.345123,43.611561 176.892044,43.564316 
z"/>
<path fill="#A2A2A2" opacity="1.000000" stroke="none" 
	d="
M107.772881,77.026337 
	C107.916725,77.587341 107.767830,78.070107 107.037415,77.278610 
	C107.157753,77.016991 107.333702,77.011131 107.772881,77.026337 
z"/>
<path fill="#5C5C5C" opacity="1.000000" stroke="none" 
	d="
M403.310852,75.848610 
	C403.447418,75.518402 403.765015,75.399353 404.570679,75.136749 
	C405.058746,74.993187 405.319458,75.015076 405.412842,75.105927 
	C405.354736,75.411461 405.203186,75.626137 404.787323,76.133186 
	C404.147919,76.392036 403.804230,76.270096 403.310852,75.848610 
z"/>
<path fill="#696969" opacity="1.000000" stroke="none" 
	d="
M63.826733,73.833832 
	C64.131409,74.023689 64.087746,74.208458 64.062088,74.677231 
	C63.858082,74.960709 63.636089,74.960190 63.081039,74.942978 
	C62.991447,74.560432 63.234917,74.194580 63.826733,73.833832 
z"/>
<path fill="#E48337" opacity="1.000000" stroke="none" 
	d="
M227.215744,28.985451 
	C241.238953,28.984428 254.793686,28.984428 269.269318,28.984428 
	C267.367798,31.559595 265.614044,30.940128 264.144318,30.999201 
	C252.691422,31.459526 241.227478,30.464100 229.759674,31.858149 
	C222.014709,32.799644 221.957565,32.329609 219.845581,39.392067 
	C218.578339,35.293552 219.018234,31.131914 219.749619,26.542650 
	C221.529694,29.737846 224.274506,28.900211 227.215744,28.985451 
z"/>
<path fill="#E48337" opacity="1.000000" stroke="none" 
	d="
M219.110703,43.504669 
	C223.595291,43.233784 227.967682,43.956768 232.428711,44.070885 
	C242.921509,44.339302 253.327621,42.896069 263.794556,43.017700 
	C264.959534,43.031235 266.126190,43.031372 267.288605,43.097950 
	C268.351166,43.158810 269.437836,43.587406 269.470398,44.708431 
	C269.510498,46.090919 268.210999,46.000854 267.247040,46.001617 
	C252.093872,46.013599 236.940689,46.004097 221.787521,46.006832 
	C220.314316,46.007099 219.115677,45.700413 219.110703,43.504669 
z"/>
<path fill="#E48337" opacity="1.000000" stroke="none" 
	d="
M219.173004,17.065575 
	C219.723557,15.912878 220.226395,14.733338 221.389755,15.651901 
	C222.205261,16.295811 221.424942,17.188026 220.986176,17.815323 
	C220.111343,19.066051 219.462265,18.786015 219.173004,17.065575 
z"/>
<path fill="#DE843E" opacity="1.000000" stroke="none" 
	d="
M395.549255,30.066740 
	C390.736053,30.071913 386.369354,30.071913 382.002625,30.071913 
	C386.664276,27.730371 391.548431,27.940491 396.411438,28.027231 
	C397.302704,28.043129 398.659515,27.914656 398.216766,29.421246 
	C398.100128,29.817999 396.769073,29.857836 395.549255,30.066740 
z"/>
<path fill="#E1833A" opacity="1.000000" stroke="none" 
	d="
M43.253845,26.268333 
	C42.950157,22.699478 44.481785,20.397945 47.325592,18.750137 
	C58.336594,12.369963 69.998581,11.627199 82.103569,14.607657 
	C82.664246,14.745705 83.121986,15.301852 83.756866,15.755618 
	C82.737595,17.459393 81.438286,16.993584 80.250687,16.604017 
	C69.866997,13.197854 60.096947,15.127968 50.543980,19.764462 
	C47.797234,21.097586 46.538399,23.604652 44.484245,25.921829 
	C43.982845,26.249485 43.762699,26.393259 43.253845,26.268333 
z"/>
<path fill="#DE843E" opacity="1.000000" stroke="none" 
	d="
M42.957157,26.467649 
	C43.171265,26.010086 43.377396,26.020535 43.893257,26.068348 
	C44.202991,31.705793 44.202991,37.305878 44.202991,42.905960 
	C43.785053,42.911591 43.367119,42.917221 42.949181,42.922852 
	C42.949181,37.593788 42.949181,32.264725 42.957157,26.467649 
z"/>
<path fill="#D98545" opacity="1.000000" stroke="none" 
	d="
M95.578033,41.602585 
	C95.922256,42.408749 96.084915,43.093842 95.303345,43.276531 
	C95.065750,43.332066 94.490891,42.789124 94.396461,42.433693 
	C94.210739,41.734600 94.550644,41.265068 95.578033,41.602585 
z"/>
<path fill="#E1833A" opacity="1.000000" stroke="none" 
	d="
M349.310059,30.722914 
	C344.278076,30.903194 339.538971,30.903194 334.766907,30.903194 
	C334.859985,29.105089 335.959534,29.026327 336.884552,29.017309 
	C342.704041,28.960600 348.524597,28.937698 354.343750,29.000437 
	C355.300201,29.010748 357.531616,28.591854 355.334534,30.889248 
	C353.249420,30.032396 351.400696,30.641380 349.310059,30.722914 
z"/>
<path fill="#D98545" opacity="1.000000" stroke="none" 
	d="
M349.442291,30.934551 
	C350.723541,29.441744 352.601471,29.894941 354.737457,30.671749 
	C353.282227,30.942219 351.574829,30.954063 349.442291,30.934551 
z"/>
<path fill="#DE843E" opacity="1.000000" stroke="none" 
	d="
M110.401764,40.938057 
	C108.683060,40.009075 108.750885,38.714252 109.874634,37.084526 
	C118.411324,36.878502 126.660828,36.870930 134.909454,36.951721 
	C135.862076,36.961052 137.460052,36.345005 137.416550,38.250759 
	C137.409882,38.543083 136.398422,38.812466 135.476425,39.100609 
	C133.358612,39.868847 131.510178,39.281849 129.370789,39.685005 
	C128.564209,39.850639 128.114334,39.862392 127.327019,39.863052 
	C122.575287,39.090298 118.130714,39.618725 113.351273,39.767864 
	C112.226418,40.260063 111.450661,40.524597 110.401764,40.938057 
z"/>
<path fill="#E1833A" opacity="1.000000" stroke="none" 
	d="
M137.380905,29.843340 
	C129.302383,30.071306 121.450470,29.622911 113.304703,30.648170 
	C112.219284,31.207964 111.440094,31.489668 110.387299,31.924034 
	C109.747482,31.548098 109.381287,31.019497 108.971733,30.153862 
	C113.235130,29.150885 117.341194,27.734177 121.957809,28.699158 
	C125.944031,29.532368 130.098816,27.306152 134.263123,27.986172 
	C135.466125,28.182617 137.538971,26.861603 137.380905,29.843340 
z"/>
<path fill="#D48A55" opacity="1.000000" stroke="none" 
	d="
M113.466476,40.008778 
	C117.373169,38.085995 121.890175,39.119873 126.678024,39.592285 
	C122.636658,39.908649 118.283730,39.965336 113.466476,40.008778 
z"/>
<path fill="#D48A55" opacity="1.000000" stroke="none" 
	d="
M129.413452,39.884727 
	C130.593231,38.409180 132.510681,39.199589 134.691956,39.072395 
	C133.515640,40.523342 131.597595,39.798203 129.413452,39.884727 
z"/>
<path fill="#5B7485" opacity="1.000000" stroke="none" 
	d="
M165.011810,98.387932 
	C181.695740,98.103241 198.375565,98.023178 215.519913,97.885483 
	C222.350372,97.896492 228.716309,97.965118 235.547974,98.098686 
	C236.013687,98.163628 235.999741,98.575630 235.995316,98.781700 
	C232.253143,101.690849 227.985321,100.174988 223.474274,100.488602 
	C217.633469,100.639656 212.267075,100.608971 206.425690,100.487488 
	C197.998978,100.656891 190.047424,100.676994 181.617920,100.447868 
	C177.005188,100.402359 172.803955,101.290390 168.399200,99.295036 
	C167.258545,99.005798 166.505707,99.002571 165.376434,99.000595 
	C165.000000,99.001831 165.007721,98.592560 165.011810,98.387932 
z"/>
<path fill="#216185" opacity="1.000000" stroke="none" 
	d="
M411.246155,113.676384 
	C410.549408,113.939598 410.105804,113.959053 409.329346,113.987808 
	C408.831512,113.863945 408.666534,113.730797 408.256226,113.799942 
	C404.646454,113.997299 401.282013,113.992363 397.459839,113.967865 
	C396.309662,113.345284 395.894989,112.575554 395.581177,111.378067 
	C395.421814,110.173859 395.628937,109.315582 395.718872,108.127823 
	C395.733734,107.597260 395.734894,107.386314 395.719849,106.864456 
	C395.581451,104.770439 394.436432,104.238556 392.550415,104.232162 
	C391.825134,104.231018 391.412201,104.224709 390.694519,104.222290 
	C389.367310,104.212456 388.428802,104.486916 387.289917,105.178970 
	C385.243134,105.500977 383.683411,104.602242 381.705261,104.188065 
	C380.707489,103.331436 380.306488,102.541641 380.760864,101.245811 
	C381.358734,98.519737 383.278778,99.019623 384.850830,99.013618 
	C392.968567,98.982582 401.090302,99.145737 409.202759,98.936012 
	C413.283203,98.830521 415.986389,101.343712 418.729126,103.469643 
	C421.001465,105.230988 420.383728,107.844162 418.486725,110.037277 
	C416.618286,112.197380 414.073975,112.809479 411.246155,113.676384 
z"/>
<path fill="#3B698A" opacity="1.000000" stroke="none" 
	d="
M222.763916,99.332794 
	C227.024475,99.012772 231.045563,99.004272 235.528778,98.991776 
	C242.090683,99.413162 248.255219,98.161079 254.701843,99.861984 
	C256.415375,102.834976 253.529495,104.222931 252.777344,106.682999 
	C252.223068,107.631042 251.095520,108.437569 251.616989,108.908211 
	C252.781204,109.958992 254.297775,108.702568 256.014526,108.988716 
	C256.804932,109.143372 257.210327,109.351654 257.790863,109.913055 
	C258.439362,110.998665 259.980865,111.155861 259.542358,112.425476 
	C259.012726,113.959015 257.586304,113.983742 256.248047,113.984200 
	C250.815704,113.986061 245.383377,113.974518 239.483765,113.957321 
	C237.240417,110.643997 234.237747,109.729088 230.750656,109.450043 
	C223.048492,108.833710 222.024902,107.540909 222.763916,99.332794 
z"/>
<path fill="#2F6584" opacity="1.000000" stroke="none" 
	d="
M380.572876,100.969398 
	C381.228821,101.776917 381.486694,102.590561 381.872284,103.701645 
	C383.323761,106.222961 382.368347,108.544136 382.038055,111.129807 
	C380.292358,112.279282 378.810211,112.251282 377.097046,111.101051 
	C376.528809,109.537010 377.876678,108.560425 377.446808,107.327873 
	C376.915253,108.023689 377.042450,109.089653 376.196350,110.110344 
	C375.350769,110.765182 374.665375,110.860504 373.614014,110.650551 
	C371.280212,109.068794 372.206421,106.949074 372.087280,104.897552 
	C371.896271,106.646187 371.509796,108.181480 370.868164,110.012192 
	C370.321289,110.969017 369.770203,111.387001 368.656372,111.459030 
	C368.099976,111.287064 367.900452,111.160828 367.506653,110.744553 
	C366.765594,109.228630 366.891846,107.860222 366.329163,106.351852 
	C365.434204,105.290932 364.446655,105.214622 363.145966,105.125946 
	C362.415192,105.064995 361.999023,105.000366 361.272949,104.844849 
	C359.516022,104.317200 358.062958,104.099159 356.263062,104.702888 
	C355.506317,104.909996 355.064362,105.000305 354.275940,105.117165 
	C353.473053,105.205879 353.011841,105.237968 352.202576,105.288757 
	C350.460571,105.383080 349.093750,105.788765 347.347473,105.579048 
	C345.587585,104.679604 343.972961,103.779037 342.451111,104.532776 
	C339.910217,105.791245 337.439117,105.090332 334.590088,104.932220 
	C333.822968,105.010391 333.385437,105.027138 332.626831,104.996841 
	C331.176880,104.914452 329.919647,104.157936 328.920868,105.870789 
	C328.070496,107.674942 327.628662,109.424011 325.188141,109.687927 
	C324.560455,109.564682 324.318085,109.466553 323.803253,109.079773 
	C322.767487,105.463768 323.452026,102.426140 325.641113,99.340164 
	C341.712097,99.028030 357.507019,99.128815 373.296326,98.878036 
	C376.035461,98.834541 377.845764,100.441628 380.572876,100.969398 
z"/>
<path fill="#386783" opacity="1.000000" stroke="none" 
	d="
M285.250763,111.586716 
	C284.032593,111.913216 283.299225,112.249916 283.093597,113.653000 
	C279.545715,113.959389 276.031860,113.938477 272.032837,113.874191 
	C271.185150,113.258392 271.120331,112.626114 271.232788,111.653122 
	C271.422089,110.927475 271.582001,110.530922 271.921356,109.866013 
	C272.187897,109.410263 272.305328,109.235138 272.636566,108.828796 
	C273.334290,108.205353 273.873199,107.893478 274.627502,107.355240 
	C275.859711,106.408211 276.329742,105.116501 277.845764,104.517212 
	C278.374115,104.506050 278.583221,104.547249 279.054016,104.766373 
	C279.967682,105.758904 279.935913,106.754166 280.116089,107.885849 
	C280.466370,107.831581 280.487701,107.571129 280.187500,106.965286 
	C280.325226,104.510857 280.415619,102.343330 281.911377,100.212784 
	C286.324402,98.640434 290.272064,98.248032 294.482330,100.301437 
	C296.904633,101.482849 299.282684,97.806885 302.594177,99.008934 
	C303.746460,99.819870 304.080383,100.771553 304.054901,102.229813 
	C303.812347,103.867592 303.273529,104.959496 302.064575,106.046387 
	C300.251038,106.251015 299.667206,107.587212 298.410309,108.545578 
	C297.661987,108.768990 297.218323,108.790428 296.455444,108.652466 
	C293.458374,107.454391 293.816498,109.909210 292.850708,111.350723 
	C291.617920,111.969421 290.673737,111.970650 289.476440,111.215393 
	C289.208618,110.948044 289.043732,110.959419 288.961975,110.971420 
	C288.790588,110.796738 288.701019,110.610062 288.675964,110.119896 
	C288.861084,109.421135 288.952759,109.019173 289.076599,108.307648 
	C289.471863,106.769936 290.871429,105.326775 288.217743,104.807053 
	C286.846832,104.591942 286.431335,102.383347 284.860901,103.432945 
	C283.089386,104.616959 285.087616,105.531479 285.361572,106.597481 
	C285.500397,107.137611 285.077393,107.822136 284.933807,108.774231 
	C285.520996,109.736191 285.708038,110.457420 285.250763,111.586716 
z"/>
<path fill="#246387" opacity="1.000000" stroke="none" 
	d="
M303.293518,103.259811 
	C303.002136,101.931648 303.002808,100.871735 303.008606,99.415039 
	C308.028076,99.014977 313.042419,99.011688 318.522949,99.012108 
	C322.406158,101.540085 320.319702,105.711548 322.193970,108.852173 
	C322.864807,108.937752 323.253052,108.963318 323.933411,109.015327 
	C324.226288,109.030014 324.590515,109.031555 324.772583,109.028183 
	C326.615906,109.984612 328.298859,110.931740 327.228088,113.661865 
	C323.304993,113.982841 319.621460,113.984200 315.478821,113.975510 
	C311.841217,111.454659 315.156433,107.450981 312.588562,104.626015 
	C311.618805,104.399567 310.952271,104.319023 309.917786,104.316238 
	C308.307129,104.313492 307.056305,104.323189 305.418335,104.193222 
	C304.510010,104.027908 304.028900,103.822304 303.293518,103.259811 
z"/>
<path fill="#356583" opacity="1.000000" stroke="none" 
	d="
M279.347900,104.816307 
	C278.942047,104.996529 278.474792,104.997780 278.241150,104.998581 
	C276.405762,104.386108 274.757965,104.197868 272.765808,104.546616 
	C272.086243,104.745369 271.702789,104.863724 271.049683,105.098099 
	C270.065216,105.517258 269.433380,105.986458 268.411377,106.269241 
	C267.397308,105.983246 266.886169,105.399719 266.080688,104.748276 
	C265.521545,104.630005 265.401184,103.427948 264.697906,104.614288 
	C263.245300,105.559303 262.743713,107.041359 261.229614,107.891098 
	C260.190460,107.979164 259.452301,107.991959 258.344971,108.006699 
	C257.394501,107.482559 257.215149,106.805580 257.317780,105.701447 
	C257.134644,104.826950 258.839264,104.745888 257.502472,103.717651 
	C256.983643,102.442520 256.997162,101.497025 257.752533,100.300873 
	C264.982666,98.416229 272.018036,98.639420 279.426086,99.795792 
	C281.337067,101.546501 281.197479,103.095596 279.347900,104.816307 
z"/>
<path fill="#7B94A3" opacity="1.000000" stroke="none" 
	d="
M258.282715,104.758293 
	C258.125031,105.762009 258.058960,106.509796 257.984344,107.633118 
	C257.991486,108.491600 258.007172,108.974556 258.013855,109.822983 
	C257.536682,110.163361 257.068542,110.138260 256.250366,110.080704 
	C255.107269,108.680626 253.557343,108.353569 252.195694,107.249359 
	C251.493134,104.211540 254.190933,102.919968 255.015411,100.372711 
	C255.813858,100.012749 256.536255,99.996475 257.620514,99.995956 
	C258.034821,101.071198 258.087280,102.130684 258.177521,103.586327 
	C258.268250,104.155769 258.321259,104.329063 258.282715,104.758293 
z"/>
<path fill="#386783" opacity="1.000000" stroke="none" 
	d="
M323.145630,109.753265 
	C320.319214,111.820045 320.040131,110.081627 320.001984,108.007133 
	C319.951355,105.254486 320.354523,102.452301 319.046692,99.423645 
	C320.032013,99.323227 321.074951,99.630638 322.443054,99.992889 
	C324.991089,103.043846 322.104095,106.318741 323.145630,109.753265 
z"/>
<path fill="#789CAE" opacity="1.000000" stroke="none" 
	d="
M323.255981,109.997635 
	C321.437897,107.065880 321.761841,103.956406 322.790955,100.439468 
	C323.399261,99.245316 324.270966,99.036118 325.575745,99.047211 
	C325.299561,102.111191 324.680054,105.176010 324.143402,108.635422 
	C323.983429,109.306984 323.740540,109.583939 323.255981,109.997635 
z"/>
<path fill="#85A6B6" opacity="1.000000" stroke="none" 
	d="
M278.972015,105.409119 
	C279.715271,103.673119 280.062073,102.264038 279.791626,100.359299 
	C280.319733,99.962326 280.854980,99.938423 281.792175,99.946167 
	C281.837860,102.381432 281.481628,104.785057 281.183960,107.584198 
	C281.479065,108.426003 281.560272,108.898956 281.300171,109.718407 
	C277.794830,109.943001 279.244232,107.458618 278.972015,105.409119 
z"/>
<path fill="#FFFCF4" opacity="1.000000" stroke="none" 
	d="
M313.668823,39.847572 
	C313.381317,40.447002 313.160553,40.745342 312.838837,41.304127 
	C312.497253,42.840134 311.408691,42.334644 310.510498,42.837673 
	C310.356842,43.123535 310.039459,43.338272 309.921509,43.489273 
	C307.775970,45.509830 305.215210,44.782349 302.454041,45.120045 
	C298.332947,45.182323 294.619720,45.189846 290.449158,45.270565 
	C287.969604,41.321186 289.405701,37.016766 288.975250,32.364803 
	C294.254852,31.897884 299.534393,31.902752 304.813049,31.973036 
	C308.473602,32.021774 311.633667,33.109295 313.802002,36.774269 
	C314.053955,37.443657 314.037140,37.891510 314.031403,38.675423 
	C313.940186,39.189812 313.837891,39.368145 313.668823,39.847572 
z"/>
<path fill="#D98545" opacity="1.000000" stroke="none" 
	d="
M288.931763,31.956570 
	C287.812378,31.822460 286.366272,32.310440 286.248688,30.535955 
	C286.182983,29.543547 286.902527,29.019432 287.814545,29.023771 
	C295.083008,29.058355 302.368500,28.416998 309.609589,29.404325 
	C310.637726,29.544514 311.895416,29.988300 312.481689,31.828897 
	C304.662140,30.118767 297.025238,28.697905 289.172302,31.531521 
	C288.975708,31.865101 288.982330,31.968998 288.931763,31.956570 
z"/>
<path fill="#537591" opacity="1.000000" stroke="none" 
	d="
M168.044403,99.358582 
	C172.034225,99.008606 176.057053,99.008194 180.543457,99.012032 
	C185.583282,101.750854 189.008530,105.974892 193.628036,108.693909 
	C195.181534,109.608299 196.249985,111.303947 195.229706,113.710648 
	C191.969177,114.002693 188.938950,114.004807 185.454758,113.998520 
	C184.845596,113.524811 184.768326,112.699646 184.523849,112.646713 
	C178.073135,111.250214 175.855316,103.939323 169.725418,102.055023 
	C169.003784,101.833183 168.618561,100.517006 168.044403,99.358582 
z"/>
<path fill="#DDA479" opacity="1.000000" stroke="none" 
	d="
M302.313568,45.424713 
	C304.109344,43.504002 306.736511,44.548168 309.390686,43.687576 
	C308.040619,46.606892 305.289215,46.064178 302.313568,45.424713 
z"/>
<path fill="#DDA479" opacity="1.000000" stroke="none" 
	d="
M310.679382,43.108692 
	C310.579712,42.178299 311.431091,42.036247 312.442810,41.643311 
	C312.714203,42.704292 311.907349,42.955009 310.679382,43.108692 
z"/>
<path fill="#DDA479" opacity="1.000000" stroke="none" 
	d="
M313.780457,40.100071 
	C313.412689,39.843792 313.430939,39.551983 313.849670,39.142349 
	C314.141449,39.261463 314.273560,39.505745 314.318146,39.765072 
	C314.330658,39.837799 314.085693,39.954800 313.780457,40.100071 
z"/>
<path fill="#236184" opacity="1.000000" stroke="none" 
	d="
M372.771088,109.787086 
	C373.823853,110.022911 374.550507,110.011047 375.640564,109.998489 
	C376.212921,109.898575 376.421906,109.799362 376.802795,110.001572 
	C378.278564,111.374504 379.827911,110.891953 381.664703,110.973930 
	C382.762268,110.158066 383.735596,109.942856 385.108887,109.763626 
	C386.440582,109.645454 387.419861,109.686996 388.707733,109.266602 
	C389.544708,109.053200 390.033234,108.969215 390.904053,108.884506 
	C392.860565,108.886520 394.321533,109.242371 395.736023,110.679916 
	C396.875488,111.496895 396.993500,112.362015 396.998901,113.613640 
	C374.985413,113.960938 352.968811,113.973587 330.484619,113.979660 
	C328.961121,112.777321 329.163147,111.565788 330.246216,110.057716 
	C330.748505,109.632965 330.976227,109.497162 331.584076,109.247360 
	C332.483795,109.058144 333.004974,109.043571 333.907623,109.139740 
	C337.478271,109.908936 340.674744,109.811432 344.244263,109.209267 
	C344.861206,109.161430 345.108276,109.158066 345.722229,109.188599 
	C349.159485,109.943520 352.262970,109.758484 355.711304,109.487663 
	C356.283722,109.360809 356.511719,109.308205 357.084045,109.216324 
	C357.655396,109.179848 357.882416,109.182640 358.441254,109.228989 
	C359.606110,109.439392 360.433502,109.676994 361.599304,109.397789 
	C362.715607,109.116501 363.541382,109.032776 364.685242,109.094559 
	C365.189697,109.172417 365.388000,109.219185 365.869934,109.375122 
	C366.700134,109.751495 367.158020,110.135170 367.785828,110.779320 
	C368.591492,110.761040 369.189056,110.532341 369.953735,110.019913 
	C370.858093,109.228020 371.637115,109.213470 372.771088,109.787086 
z"/>
<path fill="#376886" opacity="1.000000" stroke="none" 
	d="
M304.743866,103.286949 
	C306.381531,103.015167 307.794983,103.011337 309.632324,103.018890 
	C310.175293,103.222740 310.294373,103.415215 310.386902,103.945595 
	C309.012878,107.246056 310.286560,111.040207 307.183838,113.747620 
	C300.806213,113.798332 294.654694,114.520081 288.242554,113.277786 
	C288.257172,112.465622 288.567505,111.957809 289.043243,111.199020 
	C290.223480,110.962982 291.238373,110.977921 292.636932,110.987923 
	C293.759460,110.006203 294.517029,109.046371 295.752899,108.135178 
	C296.496307,108.007019 296.963287,108.012886 297.780334,108.029648 
	C299.556366,108.846405 299.785919,107.107933 301.032196,106.760628 
	C305.657227,108.911415 303.100464,104.230865 304.743866,103.286949 
z"/>
<path fill="#83A3B5" opacity="1.000000" stroke="none" 
	d="
M307.381104,114.005180 
	C307.741425,110.723595 308.544037,107.475555 309.663208,104.062904 
	C311.066833,104.574432 311.756317,105.691681 312.998718,106.684738 
	C313.069733,109.115860 314.269684,111.405197 312.447510,113.724487 
	C310.767517,114.008690 309.295471,114.023712 307.381104,114.005180 
z"/>
<path fill="#386783" opacity="1.000000" stroke="none" 
	d="
M331.240204,109.691467 
	C330.673126,111.111824 330.339844,112.196846 330.011841,113.627480 
	C329.259918,113.983536 328.502777,113.993988 327.367065,113.992958 
	C327.262512,112.202065 326.445251,110.849777 325.120239,109.328117 
	C327.291901,109.002937 326.846344,106.720886 327.916443,105.230927 
	C330.757294,105.193161 331.896423,106.675247 331.240204,109.691467 
z"/>
<path fill="#386783" opacity="1.000000" stroke="none" 
	d="
M312.584656,113.987717 
	C313.863617,111.953789 310.439392,109.543877 312.837524,107.280869 
	C312.680054,105.895035 312.107361,104.816849 312.728210,103.325027 
	C315.694702,103.333496 314.772888,105.488899 315.005341,107.095428 
	C315.303558,109.156601 314.040497,111.189796 314.977417,113.607300 
	C314.323059,113.970901 313.626373,113.976334 312.584656,113.987717 
z"/>
<path fill="#506F83" opacity="1.000000" stroke="none" 
	d="
M408.257263,114.004242 
	C408.279602,113.894226 408.548340,113.786209 408.906799,113.837646 
	C408.996490,113.997101 408.503693,114.006248 408.257263,114.004242 
z"/>
<path fill="#DA8440" opacity="1.000000" stroke="none" 
	d="
M166.177261,43.715611 
	C162.574997,49.109760 157.881821,48.717621 152.517288,46.912628 
	C149.073929,42.080090 150.472733,36.670238 149.552383,31.603903 
	C152.655121,34.790180 148.976578,40.064964 153.625671,42.915268 
	C157.717316,47.329552 161.445084,45.153397 165.530319,42.937824 
	C166.041595,43.048218 166.195404,43.227203 166.177261,43.715611 
z"/>
<path fill="#E48337" opacity="1.000000" stroke="none" 
	d="
M176.923187,47.593422 
	C175.578400,47.952087 174.197281,47.992359 172.400116,48.044701 
	C171.055588,46.909424 170.127090,45.762081 169.090820,44.309441 
	C171.181885,43.377968 172.443375,45.349129 174.569336,45.917252 
	C175.798370,46.055939 176.646774,46.216988 176.923187,47.593422 
z"/>
<path fill="#E48337" opacity="1.000000" stroke="none" 
	d="
M166.379135,44.022205 
	C165.993683,43.832119 165.982056,43.639210 165.929123,43.157764 
	C166.158524,41.731503 165.353409,39.691624 166.890945,39.662975 
	C168.733887,39.628643 168.841934,41.722065 169.014618,43.646477 
	C168.248230,44.018528 167.500595,44.018955 166.379135,44.022205 
z"/>
<path fill="#4E728F" opacity="1.000000" stroke="none" 
	d="
M195.436340,114.009644 
	C195.331512,111.476471 193.910080,109.533173 191.974075,108.748703 
	C187.305466,106.856995 184.661835,102.766319 181.054291,99.350243 
	C189.027359,99.012466 197.047714,99.008644 205.537064,99.009163 
	C209.333893,105.216866 214.121521,109.306534 221.422089,110.022179 
	C223.142853,110.190857 224.549454,111.220116 224.235931,113.655159 
	C216.992722,113.981567 209.958572,113.990555 202.453949,114.002174 
	C199.946762,114.009438 197.910034,114.014076 195.436340,114.009644 
z"/>
<path fill="#416C8B" opacity="1.000000" stroke="none" 
	d="
M224.490295,113.977615 
	C223.776306,111.265282 221.848679,111.241318 219.728165,110.936302 
	C212.993378,109.967545 207.515793,107.247238 206.008881,99.387939 
	C211.359894,99.010635 216.713699,99.007774 222.535446,99.013092 
	C222.057755,101.898972 225.757568,103.757362 224.602173,106.925720 
	C224.173508,108.101196 226.332779,107.983086 227.399094,107.969322 
	C230.227783,107.932800 232.972336,108.503860 235.749008,108.807968 
	C238.872971,109.150124 239.175552,110.734825 239.010498,113.530281 
	C234.328903,113.958702 229.641312,113.970680 224.490295,113.977615 
z"/>
<path fill="#436C88" opacity="1.000000" stroke="none" 
	d="
M268.071167,105.990524 
	C268.822266,105.396591 269.252472,104.823547 269.942200,104.174957 
	C273.026398,107.409126 271.420929,110.416519 269.295593,113.691864 
	C266.873657,113.323349 263.152649,115.904572 263.034637,110.676239 
	C263.162201,109.575645 263.663116,109.148750 264.458008,108.554642 
	C265.862518,107.748291 266.704529,106.748901 268.071167,105.990524 
z"/>
<path fill="#8DAEC2" opacity="1.000000" stroke="none" 
	d="
M269.345764,113.980743 
	C269.292542,110.896423 271.588531,108.090431 270.234253,104.447220 
	C270.628235,103.980263 271.054779,103.861099 271.804810,103.661011 
	C273.011017,104.034264 273.439453,104.803444 273.643341,106.078903 
	C273.610107,107.093933 273.438599,107.740005 273.101135,108.686096 
	C273.032745,109.188499 273.037659,109.367744 273.028442,109.815598 
	C272.835938,110.226410 272.657562,110.368607 272.241272,110.756706 
	C271.899902,111.712769 271.796509,112.422928 271.620361,113.481949 
	C270.920685,113.882111 270.293793,113.933403 269.345764,113.980743 
z"/>
<path fill="#85A6B6" opacity="1.000000" stroke="none" 
	d="
M265.151337,108.339439 
	C264.540985,109.357529 264.081238,109.713974 263.329437,110.177376 
	C262.426544,109.701492 261.815704,109.118652 261.066772,108.251091 
	C262.368744,106.824242 261.099335,103.527374 264.655762,103.758667 
	C266.109314,104.996796 265.500488,106.350998 265.151337,108.339439 
z"/>
<path fill="#E7E7E7" opacity="1.000000" stroke="none" 
	d="
M152.652313,75.279053 
	C155.167007,77.146309 154.426865,78.542580 152.408768,79.474091 
	C150.833649,80.201141 149.240891,79.504829 148.939819,77.882416 
	C148.486328,75.438614 150.238724,74.926956 152.652313,75.279053 
z"/>
<path fill="#F2F2F2" opacity="1.000000" stroke="none" 
	d="
M402.735535,75.615440 
	C403.422272,75.846245 403.714691,76.055031 404.265045,76.344681 
	C405.950165,79.243866 403.902588,80.085945 401.917847,80.395889 
	C399.339447,80.798546 396.682098,80.695221 393.636932,80.863678 
	C391.595276,77.092560 392.408813,74.998856 397.012146,75.434181 
	C398.777740,75.601151 400.564270,75.546883 402.735535,75.615440 
z"/>
<path fill="#303030" opacity="1.000000" stroke="none" 
	d="
M222.708176,81.052261 
	C226.992981,81.036743 231.013870,81.055801 235.479004,81.193878 
	C231.366867,82.715591 226.699036,81.600449 221.652893,81.883270 
	C221.621994,81.590042 222.033127,81.338440 222.708176,81.052261 
z"/>
<path fill="#E0E0E0" opacity="1.000000" stroke="none" 
	d="
M178.865021,77.353683 
	C179.607910,75.727119 180.667648,74.830307 182.652161,74.835999 
	C184.309067,75.885452 185.912338,77.114914 184.161743,78.763885 
	C182.207779,80.604446 180.294464,79.992462 178.865021,77.353683 
z"/>
<path fill="#9D9D9D" opacity="1.000000" stroke="none" 
	d="
M73.266479,80.518837 
	C70.715988,80.823685 68.355408,80.899582 65.556168,80.939796 
	C66.750725,77.376457 69.880035,79.812149 72.659607,79.174255 
	C73.390961,79.521690 73.503319,79.878647 73.266479,80.518837 
z"/>
<path fill="#ABB8C7" opacity="1.000000" stroke="none" 
	d="
M73.480530,80.797165 
	C73.073936,80.409576 73.071297,80.071373 73.081497,79.480347 
	C74.817482,79.329918 76.792259,78.107826 78.047630,80.579269 
	C76.598335,80.930435 75.241409,80.888489 73.480530,80.797165 
z"/>
<path fill="#85A6B6" opacity="1.000000" stroke="none" 
	d="
M289.485992,109.626129 
	C289.309998,110.065865 289.227112,110.250771 289.012207,110.709549 
	C286.740204,109.266190 289.176849,107.216614 288.220337,105.188004 
	C288.548187,103.980721 289.637177,103.586998 290.356140,104.277092 
	C291.679504,105.547310 290.141815,106.925995 290.023438,108.647675 
	C289.850922,109.132591 289.714996,109.251945 289.485992,109.626129 
z"/>
<path fill="#436C88" opacity="1.000000" stroke="none" 
	d="
M285.157349,112.116455 
	C285.000549,111.198387 284.992371,110.500885 284.971741,109.455231 
	C286.492676,110.031494 288.316589,110.924713 285.157349,112.116455 
z"/>
<path fill="#537389" opacity="1.000000" stroke="none" 
	d="
M386.290863,110.747101 
	C384.906586,110.964920 383.864197,110.973610 382.432373,110.973099 
	C380.542633,108.915787 381.022583,106.829170 381.960876,104.366745 
	C383.696106,102.927681 385.027740,104.034714 386.713623,104.845947 
	C389.929626,107.015030 389.262543,108.841118 386.290863,110.747101 
z"/>
<path fill="#2F6584" opacity="1.000000" stroke="none" 
	d="
M386.303528,110.967941 
	C386.907257,109.294418 388.997284,107.910606 387.134064,105.270309 
	C387.101685,103.403763 388.057831,102.952225 389.805328,103.073364 
	C391.649567,105.299232 391.363586,107.353752 389.349792,109.584869 
	C388.530060,110.854172 387.628784,110.992310 386.303528,110.967941 
z"/>
<path fill="#597C90" opacity="1.000000" stroke="none" 
	d="
M391.733551,103.414444 
	C394.116364,103.272652 397.273560,101.770691 396.945435,106.512260 
	C396.283997,107.762398 395.387695,107.954315 394.044312,107.830894 
	C393.475128,107.664543 393.257202,107.567070 392.766602,107.237450 
	C391.768555,106.022438 391.255859,104.977486 391.733551,103.414444 
z"/>
<path fill="#7491A1" opacity="1.000000" stroke="none" 
	d="
M391.642761,103.098289 
	C392.256897,104.176628 392.576447,105.227280 392.909973,106.611717 
	C393.081024,108.158791 392.518555,108.985695 391.243744,109.745087 
	C390.545654,109.934036 390.116211,109.952240 389.366669,109.925323 
	C389.374512,107.875366 389.702423,105.870529 390.099701,103.481583 
	C390.562103,103.088509 390.955170,103.079552 391.642761,103.098289 
z"/>
<path fill="#597C90" opacity="1.000000" stroke="none" 
	d="
M391.346191,109.926010 
	C391.468964,109.049789 391.962799,108.183769 392.690308,107.131622 
	C392.923950,106.945503 392.965759,106.974548 392.986420,106.989426 
	C394.026764,107.922386 395.296295,107.325134 396.718872,107.777130 
	C396.758148,108.791687 396.505859,109.597298 396.111053,110.693970 
	C394.551453,110.635422 393.134369,110.285812 391.346191,109.926010 
z"/>
<path fill="#376886" opacity="1.000000" stroke="none" 
	d="
M396.995850,107.717850 
	C395.825623,107.845284 394.640778,107.704491 393.231506,107.283997 
	C394.053314,106.986961 395.099548,106.969620 396.535522,106.933777 
	C396.943970,107.093399 396.962616,107.271515 396.995850,107.717850 
z"/>
<path fill="#537389" opacity="1.000000" stroke="none" 
	d="
M251.633911,107.040451 
	C253.642792,107.179810 255.998123,106.112869 255.923721,109.652969 
	C254.797974,110.250694 253.690201,110.427719 252.594742,110.662209 
	C251.333817,110.932106 249.850357,111.526726 249.279800,109.845474 
	C248.758102,108.308197 249.885193,107.491669 251.633911,107.040451 
z"/>
<path fill="#386783" opacity="1.000000" stroke="none" 
	d="
M345.351990,109.660194 
	C341.725616,111.615959 338.159210,111.144836 334.297180,110.336876 
	C332.243561,108.376770 332.118805,106.546417 333.757202,104.288742 
	C338.268799,105.011559 342.667053,101.037521 346.946106,104.730164 
	C347.283264,106.799278 346.205383,108.024803 345.351990,109.660194 
z"/>
<path fill="#85A6B6" opacity="1.000000" stroke="none" 
	d="
M345.368469,109.959015 
	C344.975586,108.281715 344.518921,106.543846 346.810242,105.390968 
	C348.422638,104.732933 349.821869,104.351341 351.589539,103.992737 
	C353.470978,108.842316 352.551514,109.999084 346.434601,110.265747 
	C346.016815,110.092354 345.586395,109.994202 345.368469,109.959015 
z"/>
<path fill="#386783" opacity="1.000000" stroke="none" 
	d="
M346.309265,110.364990 
	C349.765167,110.310692 352.178436,109.018814 351.980896,104.407669 
	C352.387085,104.005547 352.816162,103.995361 353.566833,103.977615 
	C356.388336,105.060081 354.626709,108.350655 356.921875,109.925400 
	C353.610504,111.630478 350.102051,111.027664 346.309265,110.364990 
z"/>
<path fill="#83A3B5" opacity="1.000000" stroke="none" 
	d="
M373.101685,109.616112 
	C372.350067,109.974556 371.602966,109.914345 370.488342,109.795151 
	C371.016632,106.964661 369.968353,103.419937 373.314484,101.277992 
	C375.030548,104.210732 372.052856,106.640961 373.101685,109.616112 
z"/>
<path fill="#789CAE" opacity="1.000000" stroke="none" 
	d="
M366.291016,109.679199 
	C364.943176,110.009087 363.870850,110.048843 362.396851,110.059097 
	C360.404144,108.062531 360.847168,106.293442 362.851562,104.364120 
	C364.370758,104.109406 365.557770,104.134575 366.997589,104.418938 
	C366.824982,106.219788 367.243469,107.883949 366.291016,109.679199 
z"/>
<path fill="#597C90" opacity="1.000000" stroke="none" 
	d="
M359.342896,109.803040 
	C358.798737,109.936417 358.615936,109.934464 358.159851,109.909569 
	C357.755981,109.718292 357.625427,109.549973 357.338074,109.103333 
	C356.821716,107.847679 356.786499,106.761047 356.026550,105.589096 
	C355.670441,104.927315 355.583954,104.516792 355.782104,103.825531 
	C357.486267,102.772041 359.016693,102.767960 360.776794,103.739212 
	C361.450592,106.091759 361.239105,108.030197 359.342896,109.803040 
z"/>
<path fill="#83A3B5" opacity="1.000000" stroke="none" 
	d="
M377.364075,110.171715 
	C376.814972,110.245560 376.655243,110.188126 376.249756,110.064240 
	C375.992645,109.665001 375.929840,109.324432 375.978760,109.000748 
	C376.217285,107.421844 375.423248,105.591331 376.904053,104.333832 
	C377.354401,103.951401 378.436829,103.972054 378.596954,104.723923 
	C378.987213,106.556541 380.013397,108.593811 377.364075,110.171715 
z"/>
<path fill="#386783" opacity="1.000000" stroke="none" 
	d="
M359.158997,110.196747 
	C359.556610,108.174751 360.131683,106.411140 360.849701,104.324318 
	C361.478943,104.010010 361.965179,104.018913 362.817566,104.056030 
	C362.711700,105.791588 361.737701,107.380966 361.982086,109.641586 
	C361.251770,111.063759 360.362183,111.184685 359.158997,110.196747 
z"/>
<path fill="#6C849B" opacity="1.000000" stroke="none" 
	d="
M331.254700,110.034561 
	C331.546082,107.769264 329.427277,106.891121 328.320129,105.130264 
	C328.471069,102.213219 330.010376,103.118408 331.801605,103.989227 
	C333.320709,105.775490 332.575897,107.547531 332.242004,109.643547 
	C331.999084,110.014938 331.502991,110.042313 331.254700,110.034561 
z"/>
<path fill="#83A3B5" opacity="1.000000" stroke="none" 
	d="
M355.630371,103.662918 
	C356.160126,103.945564 356.349091,104.324837 356.814514,104.863617 
	C357.475922,106.183540 356.585388,107.513390 357.777985,108.820702 
	C357.990509,109.046661 357.934418,109.466827 357.910492,109.676727 
	C357.886566,109.886620 357.456390,110.042549 357.249908,110.142090 
	C352.351471,110.273689 355.104279,106.480469 354.015472,104.282959 
	C354.355469,103.899879 354.822540,103.829704 355.630371,103.662918 
z"/>
<path fill="#8DAEC2" opacity="1.000000" stroke="none" 
	d="
M332.332275,110.050400 
	C332.022522,108.334572 332.045990,106.654205 332.091248,104.559448 
	C332.532471,104.100845 332.951843,104.056625 333.688171,104.005508 
	C334.334198,105.785339 332.835480,107.574974 334.009521,109.709625 
	C333.558807,110.067879 333.112152,110.076866 332.332275,110.050400 
z"/>
<path fill="#8DAEC2" opacity="1.000000" stroke="none" 
	d="
M366.007080,110.029625 
	C366.067108,108.374008 365.626221,106.711868 366.953186,104.963707 
	C368.401917,105.993713 367.641693,107.613266 367.936676,109.443413 
	C367.667664,110.329369 367.258514,110.536453 366.338562,110.327232 
	C365.979065,110.210144 365.998596,110.089928 366.007080,110.029625 
z"/>
<path fill="#386783" opacity="1.000000" stroke="none" 
	d="
M366.174500,110.412384 
	C366.411926,110.124916 366.844788,110.039696 367.601685,109.888992 
	C367.941742,110.017662 367.957733,110.211800 367.983826,110.697845 
	C367.452576,110.864700 366.911255,110.739662 366.174500,110.412384 
z"/>
<path fill="#597C90" opacity="1.000000" stroke="none" 
	d="
M273.218689,107.293457 
	C272.675995,106.040016 272.460266,105.159912 272.186401,103.929947 
	C274.144989,102.667572 276.054443,102.497849 277.837708,104.689445 
	C276.730469,105.583694 277.335999,107.660858 275.092651,107.956429 
	C274.174133,107.916374 273.851959,107.816536 273.218689,107.293457 
z"/>
<path fill="#637F98" opacity="1.000000" stroke="none" 
	d="
M304.640533,103.009460 
	C305.006073,104.300781 304.853973,105.625870 305.133606,106.852554 
	C305.433105,108.166489 305.274261,108.959770 303.959656,109.492531 
	C301.787231,110.372948 302.216309,108.320351 301.324341,107.269012 
	C300.970764,106.837685 300.872253,106.605324 301.048035,106.112068 
	C301.803711,105.066994 302.285065,104.282822 302.883911,103.245102 
	C303.438599,102.994347 303.875763,102.997139 304.640533,103.009460 
z"/>
<path fill="#486E85" opacity="1.000000" stroke="none" 
	d="
M295.981018,107.700745 
	C295.922516,109.510452 295.285919,110.596329 293.358368,110.951630 
	C291.248016,107.558990 292.194794,106.345352 295.981018,107.700745 
z"/>
<path fill="#83A3B5" opacity="1.000000" stroke="none" 
	d="
M301.135620,105.577103 
	C301.255951,106.049103 301.189545,106.247055 301.096191,106.757523 
	C299.888733,107.204430 300.890015,111.365417 298.146515,108.342804 
	C299.982422,108.067543 297.123840,103.244652 301.135620,105.577103 
z"/>
<path fill="#597C90" opacity="1.000000" stroke="none" 
	d="
M273.324890,108.995598 
	C272.172363,108.647011 272.036774,108.057907 272.688049,107.102554 
	C272.891724,106.920120 272.980682,106.984047 273.025208,107.015945 
	C273.457214,107.510918 274.041260,107.500908 274.773560,107.829987 
	C274.993835,107.995720 275.002747,108.003250 275.008087,108.011017 
	C274.549591,108.339844 274.085785,108.660896 273.324890,108.995598 
z"/>
<path fill="#436C88" opacity="1.000000" stroke="none" 
	d="
M281.393738,109.987251 
	C281.123566,109.579224 281.132751,109.120232 281.192200,108.320473 
	C281.864624,108.100182 282.583374,108.229500 282.544464,109.012238 
	C282.528503,109.333893 281.979584,109.629074 281.393738,109.987251 
z"/>
<path fill="#486E85" opacity="1.000000" stroke="none" 
	d="
M294.600037,103.531845 
	C295.424072,103.297623 295.723633,103.584190 295.597717,104.224678 
	C295.571625,104.357529 295.383331,104.536530 295.249023,104.556770 
	C294.605164,104.653885 294.329773,104.343956 294.600037,103.531845 
z"/>
<path fill="#436C88" opacity="1.000000" stroke="none" 
	d="
M272.218628,110.906357 
	C272.061676,110.657341 272.245239,110.402130 272.784180,110.160583 
	C272.898438,110.388214 272.704987,110.630188 272.218628,110.906357 
z"/>
<path fill="#376886" opacity="1.000000" stroke="none" 
	d="
M289.531738,109.768265 
	C289.350067,109.604568 289.437103,109.378059 289.820435,109.107338 
	C289.936951,109.254761 289.831543,109.468872 289.531738,109.768265 
z"/>
<path fill="#486E85" opacity="1.000000" stroke="none" 
	d="
M292.448853,105.532204 
	C292.414490,105.474518 292.483185,105.589890 292.448853,105.532204 
z"/>
<path fill="#7491A1" opacity="1.000000" stroke="none" 
	d="
M312.568909,103.036804 
	C312.789703,104.295113 314.308746,105.296112 313.224701,106.834274 
	C311.295837,107.087395 309.890228,106.833328 309.988831,104.281876 
	C309.979828,103.898293 310.001648,103.462616 310.028931,103.246445 
	C310.774170,103.031876 311.492126,103.033485 312.568909,103.036804 
z"/>
<path fill="#85A6B6" opacity="1.000000" stroke="none" 
	d="
M268.291687,105.609879 
	C267.820618,107.266243 267.396210,108.693214 265.353516,108.999435 
	C265.000702,109.001083 265.005341,109.012863 265.008087,109.019455 
	C264.521423,107.404922 265.596924,105.975159 265.765045,104.066582 
	C266.991333,103.805573 267.937225,104.021645 268.291687,105.609879 
z"/>
<path fill="#5A7995" opacity="1.000000" stroke="none" 
	d="
M265.864014,103.598816 
	C265.935181,105.279510 266.303528,106.891663 265.160034,108.669083 
	C262.863922,107.520531 264.973541,106.015640 265.025757,104.132553 
	C265.204681,103.421570 265.449036,103.328575 265.864014,103.598816 
z"/>
<path fill="#506F83" opacity="1.000000" stroke="none" 
	d="
M258.321411,104.909767 
	C258.173004,104.841736 258.154846,104.669250 258.175964,104.239624 
	C258.557343,104.201904 258.636169,104.476173 258.321411,104.909767 
z"/>
<path fill="#386783" opacity="1.000000" stroke="none" 
	d="
M357.989685,108.680313 
	C355.660461,108.587578 355.954742,107.192650 356.928589,105.318222 
	C358.239990,105.888252 357.989929,107.135063 357.989685,108.680313 
z"/>
<path fill="#436C88" opacity="1.000000" stroke="none" 
	d="
M274.836578,107.753250 
	C274.453796,107.840256 273.913727,107.684792 273.221710,107.288589 
	C273.606262,107.202164 274.142792,107.356476 274.836578,107.753250 
z"/>
</svg>