<svg version="1.1" id="Layer_1" xmlns="http://www.w3.org/2000/svg" xmlns:xlink="http://www.w3.org/1999/xlink" x="0px" y="0px"
	 width="100%" viewBox="0 0 512 512" enable-background="new 0 0 512 512" xml:space="preserve">
<path fill="#00B2EF" opacity="1.000000" stroke="none" 
	d="
M1.254095,336.343689 
	C1.000000,283.645782 1.000000,231.291550 1.000000,178.468658 
	C2.144675,176.773941 1.974669,175.237244 1.995239,173.750137 
	C2.218104,157.638870 2.232951,141.490524 3.812586,125.464508 
	C5.680717,106.511574 5.120141,87.085754 12.352351,68.987350 
	C25.793062,35.352356 50.219517,14.307054 85.976227,7.930896 
	C104.418213,4.642309 123.233147,3.540411 142.028839,2.892855 
	C154.121765,2.476225 166.241714,2.554398 178.656250,1.254107 
	C230.687561,1.000000 282.375122,1.000000 334.531342,1.000000 
	C336.226074,2.144679 337.762756,1.978881 339.249908,1.994595 
	C355.694824,2.168351 372.160461,2.328852 388.534698,3.795896 
	C404.726410,5.246585 421.179413,5.272591 436.938354,9.805358 
	C468.064148,18.758116 489.583374,38.506351 501.590332,68.626320 
	C506.156921,80.081764 507.043701,92.182716 508.363403,104.254692 
	C510.948669,127.903481 511.676880,151.634384 512.036316,175.390778 
	C512.046509,176.063843 512.185791,176.708450 512.745850,177.656250 
	C513.000000,230.354233 513.000000,282.708466 513.000000,335.531342 
	C511.853333,337.228241 512.024841,338.767609 512.004883,340.256836 
	C511.789093,356.393463 511.731873,372.562408 510.191742,388.618683 
	C508.401245,407.284851 508.771851,426.377716 501.910431,444.242889 
	C488.788910,478.407562 464.032135,499.350433 428.164581,506.051147 
	C409.880035,509.467010 391.175079,510.359680 372.527466,511.086792 
	C360.248505,511.565582 347.944580,511.457123 335.343719,512.745850 
	C283.312439,513.000000 231.624878,513.000000 179.468658,513.000000 
	C177.774033,511.855255 176.237381,512.017517 174.750366,512.005920 
	C158.137970,511.876648 141.497772,511.696777 124.971794,510.153870 
	C106.335121,508.413879 87.257645,508.778534 69.456802,501.798950 
	C35.529781,488.496460 14.383902,463.957062 7.935403,428.021362 
	C4.627040,409.584778 3.539157,390.767303 2.890657,371.972412 
	C2.484895,360.212585 2.524782,348.425903 1.254095,336.343689 
z"/>
<path fill="#000000" opacity="1.000000" stroke="none" 
	d="
M1.000000,336.468658 
	C3.344304,335.512421 3.067185,337.255432 2.967403,338.520569 
	C2.313437,346.812317 3.500773,355.040039 4.128427,363.247742 
	C5.202729,377.296112 6.064956,391.366272 7.817921,405.375946 
	C8.912597,414.124542 9.133913,422.970703 10.946745,431.665985 
	C13.699168,444.867981 19.146065,456.852844 27.165409,467.578003 
	C41.671535,486.978546 61.225220,498.688416 84.727592,503.765625 
	C91.091011,505.140320 97.712341,505.362274 104.227585,505.984741 
	C118.588997,507.356812 132.945053,508.821655 147.329071,509.907135 
	C156.390320,510.590912 165.498871,510.640778 174.584595,511.013885 
	C176.337372,511.085846 178.319046,510.395081 179.320557,512.633484 
	C121.071548,513.000000 63.142982,512.955017 5.214928,513.105713 
	C1.528706,513.115295 0.899565,512.245972 0.907588,508.724915 
	C1.038068,451.462616 1.000000,394.199921 1.000000,336.468658 
z"/>
<path fill="#000000" opacity="1.000000" stroke="none" 
	d="
M335.468658,513.000000 
	C334.437531,510.666199 336.182098,510.932983 337.425049,511.034912 
	C345.392944,511.688477 353.274170,510.377411 361.177948,509.906219 
	C375.904877,509.028290 390.605011,507.745453 405.293304,506.217957 
	C415.519135,505.154449 425.787598,504.746796 435.760895,502.000336 
	C461.046143,495.037262 480.306152,480.320007 493.226349,457.398254 
	C500.439575,444.601257 504.018677,430.910583 505.162170,416.239929 
	C506.346039,401.050659 508.225891,385.921143 509.136017,370.686157 
	C509.773529,360.015106 511.034180,349.379486 511.001648,338.664734 
	C510.998077,337.493622 510.925720,336.300751 512.590332,335.809540 
	C513.000000,393.595520 512.954590,451.191193 513.106018,508.786316 
	C513.115723,512.475952 512.241394,513.100037 508.723694,513.092102 
	C451.128479,512.962280 393.532837,513.000000 335.468658,513.000000 
z"/>
<path fill="#000000" opacity="1.000000" stroke="none" 
	d="
M178.531342,1.000000 
	C179.550995,3.339571 177.810089,3.028245 176.555405,2.971141 
	C168.928619,2.624025 161.360718,3.468771 153.777496,4.002408 
	C138.712418,5.062548 123.653603,6.086229 108.635429,7.834455 
	C99.864677,8.855436 91.022194,9.122729 82.322388,10.949212 
	C68.942703,13.758209 56.890507,19.389791 45.998356,27.528479 
	C28.453846,40.637856 17.399977,58.234699 11.443541,79.059761 
	C9.109035,87.221718 8.854055,95.819626 8.024895,104.261787 
	C6.613999,118.626945 5.197202,132.994995 4.095408,147.385742 
	C3.426761,156.119080 3.359055,164.897964 2.988508,173.654999 
	C2.914187,175.411392 3.587339,177.393799 1.346647,178.347885 
	C1.000000,120.404465 1.045392,62.808807 0.893981,5.213667 
	C0.884281,1.523952 1.758736,0.899969 5.276335,0.907896 
	C62.871563,1.037699 120.467163,1.000000 178.531342,1.000000 
z"/>
<path fill="#000000" opacity="1.000000" stroke="none" 
	d="
M513.000000,177.531342 
	C510.674866,178.613159 510.933075,176.869141 511.036499,175.638916 
	C511.665344,168.158798 510.342590,160.773911 509.915985,153.355499 
	C509.058563,138.444962 507.911865,123.554947 506.171814,108.700287 
	C505.144592,99.931000 504.866302,91.089790 503.052551,82.388733 
	C500.262482,69.004089 494.635681,56.959583 486.523712,46.041660 
	C475.047974,30.596392 459.845459,19.991590 441.940765,13.583959 
	C434.382233,10.878953 426.292328,9.464396 418.081665,8.882111 
	C405.682587,8.002786 393.356842,6.123828 380.964325,5.100808 
	C375.225037,4.627019 369.433380,4.384305 363.683197,4.164858 
	C354.923218,3.830550 346.210907,2.249347 337.409790,2.996037 
	C336.169128,3.101295 335.103027,2.795411 334.674866,1.364457 
	C392.928436,1.000000 450.857025,1.044979 508.785065,0.894275 
	C512.471252,0.884685 513.100403,1.754002 513.092407,5.275072 
	C512.961914,62.537380 513.000000,119.800079 513.000000,177.531342 
z"/>
<path fill="#FEFFFF" opacity="1.000000" stroke="none" 
	d="
M119.711349,140.640884 
	C123.362114,137.219772 125.254761,139.919540 127.218987,142.266144 
	C141.708878,159.576889 158.801895,173.756561 178.576691,184.633667 
	C199.975555,196.404099 222.807938,203.669968 247.147827,206.206329 
	C251.448242,206.654449 252.671310,205.390900 252.470169,201.061844 
	C251.099701,171.569290 262.422028,148.275772 288.958374,134.768265 
	C315.504517,121.255760 341.537140,124.241104 365.251068,142.754227 
	C369.201874,145.838547 372.916321,146.643768 377.714844,145.236832 
	C387.668396,142.318481 397.179688,138.460327 406.208557,133.376846 
	C408.237549,132.234467 410.356781,130.719772 412.643890,132.545258 
	C415.036591,134.454987 413.695923,136.811020 412.908173,138.955063 
	C409.491791,148.253281 404.278229,156.453964 397.067169,163.830933 
	C401.757477,164.403702 405.301758,162.321838 409.028046,161.132874 
	C411.557556,160.325775 413.983124,159.197510 416.473206,158.260757 
	C418.391022,157.539291 420.345398,156.966354 421.948944,158.902283 
	C423.610077,160.907761 422.471283,162.623428 421.317780,164.321976 
	C415.391541,173.048035 408.931763,181.527542 400.568115,187.855728 
	C392.324280,194.093292 390.265778,201.635086 389.889771,211.497513 
	C387.208405,281.831421 342.384460,357.766571 262.771851,383.200409 
	C209.565704,400.198151 157.997375,395.679901 108.653542,368.968140 
	C108.214432,368.730438 107.794144,368.457184 107.350639,368.228485 
	C104.462486,366.739197 102.241898,364.699768 103.280975,361.146393 
	C104.229881,357.901428 107.005630,357.227966 110.060120,357.240082 
	C118.225182,357.272461 126.382805,357.239380 134.492844,356.009979 
	C153.174026,353.178040 170.447113,346.748810 186.845276,335.873444 
	C182.379044,334.487915 178.476105,333.498444 174.735977,332.079773 
	C155.113754,324.636993 141.453766,311.109558 133.913940,291.505859 
	C131.537521,285.327148 133.173492,283.371216 139.592407,284.307220 
	C141.564865,284.594849 143.553253,284.785828 145.539871,284.957092 
	C146.290100,285.021759 147.055923,284.905518 148.891678,284.823761 
	C143.194763,281.428436 138.335342,278.636047 134.117905,274.921722 
	C118.683266,261.328461 110.349907,244.364624 109.870193,223.713608 
	C109.736366,217.952484 111.700493,216.752411 116.842056,219.190384 
	C120.561493,220.954041 124.186913,222.989807 129.120804,223.347031 
	C108.287170,197.584610 104.014587,170.343933 119.711349,140.640884 
z"/>
<path fill="#00B2EF" opacity="1.000000" stroke="none" 
	d="
M129.258896,223.324738 
	C129.517944,223.282944 129.618256,223.383743 129.718552,223.484558 
	C129.512421,223.478806 129.306290,223.473068 129.258896,223.324738 
z"/>
</svg>